<?xml version="1.0" encoding="UTF-8"?>
<svg width="40px" height="40px" viewBox="0 0 40 40" version="1.1" xmlns="http://www.w3.org/2000/svg" xmlns:xlink="http://www.w3.org/1999/xlink">
    <!-- Generator: Sketch 63.1 (92452) - https://sketch.com -->
    <title>icon/40/antojitos-black@svg</title>
    <desc>Created with Sketch.</desc>
    <g id="icon/40/antojitos-black" stroke="none" stroke-width="1" fill="none" fill-rule="evenodd">
        <path d="M29,30.5 C29,23.5964406 23.4035594,18 16.5,18 C9.59644063,18 4,23.5964406 4,30.5 L29,30.5 Z M30.289795,21.6193754 C31.7809517,21.6193754 34.0176867,21.6193754 37,21.6193754 C37,14.6498868 31.3501132,9 24.3806246,9 C20.3514123,9 16.7632435,10.8883314 14.4528266,13.8282858" id="outline" stroke="#3C3C3C" stroke-width="2" stroke-linecap="round" stroke-linejoin="round"></path>
        <path d="M11.349448,24.6041527 C11.8630277,25.0200413 11.942222,25.7735242 11.5263333,26.2871038 C11.1104447,26.8006835 10.3569618,26.8798778 9.84338215,26.4639891 C9.32980249,26.0481005 9.25060824,25.2946176 9.66649686,24.781038 C10.0823855,24.2674583 10.8358684,24.188264 11.349448,24.6041527 Z M22.0433504,23.6214809 C22.5569301,24.0373696 22.6361243,24.7908525 22.2202357,25.3044321 C21.8043471,25.8180118 21.0508642,25.897206 20.5372845,25.4813174 C20.0237049,25.0654288 19.9445106,24.3119459 20.3603992,23.7983662 C20.7762878,23.2847866 21.5297708,23.2055923 22.0433504,23.6214809 Z M17.4910174,21.8789359 C18.004597,22.2948245 18.0837913,23.0483074 17.6679027,23.5618871 C17.252014,24.0754668 16.4985311,24.154661 15.9849515,23.7387724 C15.4713718,23.3228838 15.3921776,22.5694009 15.8080662,22.0558212 C16.2239548,21.5422416 16.9774377,21.4630473 17.4910174,21.8789359 Z M30.2483111,15.2883156 C30.7618908,15.7042042 30.841085,16.4576871 30.4251964,16.9712668 C30.0093078,17.4848464 29.2558249,17.5640407 28.7422452,17.1481521 C28.2286655,16.7322634 28.1494713,15.9787805 28.5653599,15.4652009 C28.9812485,14.9516212 29.7347314,14.872427 30.2483111,15.2883156 Z M21.5544087,13.2709873 C22.0679884,13.6868759 22.1471826,14.4403588 21.731294,14.9539385 C21.3154054,15.4675181 20.5619225,15.5467124 20.0483428,15.1308238 C19.5347632,14.7149352 19.4555689,13.9614522 19.8714575,13.4478726 C20.2873461,12.9342929 21.040829,12.8550987 21.5544087,13.2709873 Z M26.695978,12.5457705 C27.2095577,12.9616592 27.2887519,13.7151421 26.8728633,14.2287217 C26.4569747,14.7423014 25.7034918,14.8214956 25.1899121,14.405607 C24.6763325,13.9897184 24.5971382,13.2362355 25.0130268,12.7226558 C25.4289154,12.2090762 26.1823984,12.1298819 26.695978,12.5457705 Z" id="fills" fill="#3C3C3C"></path>
    </g>
</svg>