<?xml version="1.0" encoding="UTF-8"?>
<svg width="40px" height="40px" viewBox="0 0 40 40" version="1.1" xmlns="http://www.w3.org/2000/svg" xmlns:xlink="http://www.w3.org/1999/xlink">
    <!-- Generator: Sketch 63.1 (92452) - https://sketch.com -->
    <title>icon/40/cafe-black@svg</title>
    <desc>Created with Sketch.</desc>
    <g id="icon/40/cafe-black" stroke="none" stroke-width="1" fill="none" fill-rule="evenodd" stroke-linecap="round" stroke-linejoin="round">
        <path d="M9.20059566,14 L27.1994043,14 C28.3039738,14 29.1994043,14.8954305 29.1994043,16 C29.1994043,16.0636359 29.1963672,16.1272355 29.1903033,16.1905818 L28.3697601,24.7623271 C27.9768776,28.866546 24.529145,32 20.4061644,32 L15.9938356,32 C11.870855,32 8.42312235,28.866546 8.03023986,24.7623271 L7.20969672,16.1905818 C7.10444131,15.0910387 7.91047076,14.1143565 9.01001388,14.0091011 C9.07336017,14.0030371 9.13695978,14 9.20059566,14 Z M29.4,15.8947368 L32.592171,16.1940129 C33.9580708,16.3220703 35,17.4298217 35,18.7539525 L35,20.6144685 C35,21.9385994 33.9580708,23.0463508 32.592171,23.1744081 L29.4,23.4736842 M13.4104985,9.98150635 C12.6828855,9.48492432 12.319079,8.94000244 12.319079,8.34674072 C12.319079,7.45684814 13.0715869,7.30503137 13.4104985,6.11156109 C13.6364395,5.31591424 13.1662733,4.61206055 12,4 M17.9938318,9.98150635 C17.2662188,9.48492432 16.9024124,8.94000244 16.9024124,8.34674072 C16.9024124,7.45684814 17.6549202,7.30503137 17.9938318,6.11156109 C18.2197728,5.31591424 17.7496067,4.61206055 16.5833333,4 M22.5771651,9.98150635 C21.8495522,9.48492432 21.4857457,8.94000244 21.4857457,8.34674072 C21.4857457,7.45684814 22.2382536,7.30503137 22.5771651,6.11156109 C22.8031061,5.31591424 22.33294,4.61206055 21.1666667,4 M6,35.5 L31.3837891,35.5" id="Combined-Shape" stroke="#3C3C3C" stroke-width="2"></path>
    </g>
</svg>