<?xml version="1.0" encoding="UTF-8"?>
<svg width="40px" height="40px" viewBox="0 0 40 40" version="1.1" xmlns="http://www.w3.org/2000/svg" xmlns:xlink="http://www.w3.org/1999/xlink">
    <!-- Generator: Sketch 63.1 (92452) - https://sketch.com -->
    <title>icon/40/cenas-black@svg</title>
    <desc>Created with Sketch.</desc>
    <g id="icon/40/cenas-black" stroke="none" stroke-width="1" fill="none" fill-rule="evenodd" stroke-linecap="round" stroke-linejoin="round">
        <path d="M8.4339774,19.7519531 L12.3681292,19.7519531 L11.9865831,33.1408355 C11.9634588,33.9522932 11.298979,34.598107 10.4871918,34.598107 L10.4240606,34.598107 C9.61700979,34.598107 8.95462166,33.9595478 8.92506673,33.1530383 L8.4339774,19.7519531 L8.4339774,19.7519531 Z M13.9230769,5.90579928 L13.9230769,11.8398652 C13.9230769,12.9322966 13.0374863,13.8178872 11.9450549,13.8178872 L8.97802198,13.8178872 C7.8855906,13.8178872 7,12.9322966 7,11.8398652 L7,5.90579928 M10.4615385,19.7519531 L10.4615385,14.1861103 M10.4615385,14.1612401 L10.4615385,5.90579928 M21.1933847,6 C20.0115665,14.8114521 20.0115665,21.6536088 27.1024756,21.6536088 C34.1933847,21.6536088 34.1933847,14.8114521 33.0115665,6 L21.1933847,6 Z M26.9804559,21.6536088 L26.9804559,32.6313033 M22.1148885,33.1818182 L31.8460233,33.1818182 M20.6074923,13.8268044 C21.2728642,15.2885927 22.7710757,16.0194869 25.1021268,16.0194869 C26.3774066,16.0194869 28.0683651,15.0358705 29.6588784,14.9231456 C30.5367082,14.860931 31.6623592,14.9961313 33.0358315,15.3287464" id="Combined-Shape" stroke="#3C3C3C" stroke-width="2"></path>
    </g>
</svg>