<?xml version="1.0" encoding="UTF-8"?>
<svg width="40px" height="40px" viewBox="0 0 40 40" version="1.1" xmlns="http://www.w3.org/2000/svg" xmlns:xlink="http://www.w3.org/1999/xlink">
    <!-- Generator: Sketch 63.1 (92452) - https://sketch.com -->
    <title>icon/40/cervezas-black@svg</title>
    <desc>Created with Sketch.</desc>
    <g id="icon/40/cervezas-black" stroke="none" stroke-width="1" fill="none" fill-rule="evenodd" stroke-linecap="round" stroke-linejoin="round">
        <path d="M28,11 L28,34 C28,35.1045695 27.1045695,36 26,36 L12,36 C10.8954305,36 10,35.1045695 10,34 L10,11 M17.4210526,2.2 C19.0573121,2.2 20.4755763,3.08668087 21.1724918,4.38185666 C21.4759752,4.2644995 21.8090062,4.2 22.1578947,4.2 C23.6112757,4.2 24.7894737,5.31928813 24.7894737,6.7 L24.7894737,6.7 L24.8649434,6.64791665 C25.2911433,6.36557517 25.8094284,6.2 26.3684211,6.2 C27.821802,6.2 29,7.31928813 29,8.7 C29,10.0807119 27.821802,11.2 26.3684211,11.2 C25.9920582,11.2 25.6341487,11.1249421 25.3103737,10.9897233 L25.3106827,10.9920972 L25.3157895,11.1779785 C25.3157895,13.1109751 23.6663122,14.6779785 21.6315789,14.6779785 C20.4158961,14.6779785 19.3377362,14.1186132 18.666725,13.2560272 C18.091826,13.8373121 17.2747079,14.2 16.3684211,14.2 C14.6243639,14.2 13.2105263,12.8568542 13.2105263,11.2 C13.2105263,11.1421639 13.2122491,11.08471 13.2156486,11.0276822 C12.8852039,11.1391786 12.5290259,11.2 12.1578947,11.2 C10.4138376,11.2 9,9.85685425 9,8.2 C9,6.54314575 10.4138376,5.2 12.1578947,5.2 C12.5591789,5.2 12.9429812,5.27110591 13.2961026,5.40077843 C13.6839948,3.57491926 15.3835082,2.2 17.4210526,2.2 Z M28,25 L28,17 L32,17 C33.1045695,17 34,17.8954305 34,19 L34,23 C34,24.1045695 33.1045695,25 32,25 L28,25 L28,25 Z M11,31 L27.4907227,31 M15,26.4907227 L15,18 M19,26.4907227 L19,18 M23,26.4907227 L23,18" id="Combined-Shape" stroke="#3C3C3C" stroke-width="2"></path>
    </g>
</svg>