<?xml version="1.0" encoding="UTF-8"?>
<svg width="40px" height="40px" viewBox="0 0 40 40" version="1.1" xmlns="http://www.w3.org/2000/svg" xmlns:xlink="http://www.w3.org/1999/xlink">
    <!-- Generator: Sketch 63.1 (92452) - https://sketch.com -->
    <title>icon/40/comidas-white@svg</title>
    <desc>Created with Sketch.</desc>
    <g id="icon/40/comidas-white" stroke="none" stroke-width="1" fill="none" fill-rule="evenodd" stroke-linecap="round" stroke-linejoin="round">
        <path d="M5.22684733,20.7519531 L8.59273275,20.7519531 L8.26953294,31.3294683 C8.24793546,32.0362997 7.66869971,32.598107 6.96153846,32.598107 C6.25264215,32.598107 5.67030795,32.0382046 5.64247539,31.3298548 L5.22684733,20.7519531 L5.22684733,20.7519531 Z M9.92307692,8.90579928 L9.92307692,13.9827224 C9.92307692,14.9173581 9.16540496,15.67503 8.23076923,15.67503 L5.69230769,15.67503 C4.75767196,15.67503 4,14.9173581 4,13.9827224 L4,8.90579928 M6.96153846,20.7519531 L6.96153846,15.9900654 M6.96153846,15.9687876 L6.96153846,8.90579928 M32.3647461,20.7519531 L35.7207845,20.7519531 L35.3519253,31.3296472 C35.3272506,32.0372374 34.7464818,32.598107 34.0384615,32.598107 C33.3305856,32.598107 32.7500746,32.0370791 32.7259184,31.3296154 L32.3647461,20.7519531 L32.3647461,20.7519531 Z M34.0384615,20.7519531 L34.0384615,15.9900654 M34.0384615,15.6767345 C36.509991,15.6767345 37,13.9948697 37,11.9201844 C37,9.84549902 35.6740741,8.38769531 34.0384615,8.38769531 C32.402849,8.38769531 31.0769231,9.84549902 31.0769231,11.9201844 C31.0769231,13.9948697 31.5669321,15.6767345 34.0384615,15.6767345 Z M27.7490407,10.1768253 C25.6390402,8.88269382 23.1566535,8.13656851 20.5,8.13656851 C17.7246068,8.13656851 15.1394064,8.95088079 12.9702879,10.3536162 M11.4004655,32.5086495 C13.8373613,34.6248641 17.0190914,35.9057993 20.5,35.9057993 C24.1785642,35.9057993 27.5230089,34.4752639 30.0073693,32.140158 M20.5,27.5211839 C23.5375661,27.5211839 26,25.05875 26,22.0211839 C26,18.9836178 23.5375661,16.5211839 20.5,16.5211839 C17.4624339,16.5211839 15,18.9836178 15,22.0211839 C15,25.05875 17.4624339,27.5211839 20.5,27.5211839 Z" id="Combined-Shape" stroke="#FFFFFF" stroke-width="2"></path>
    </g>
</svg>