<?xml version="1.0" encoding="UTF-8"?>
<svg width="40px" height="40px" viewBox="0 0 40 40" version="1.1" xmlns="http://www.w3.org/2000/svg" xmlns:xlink="http://www.w3.org/1999/xlink">
    <!-- Generator: Sketch 63.1 (92452) - https://sketch.com -->
    <title>icon/40/cortes-white@svg</title>
    <desc>Created with Sketch.</desc>
    <g id="icon/40/cortes-white" stroke="none" stroke-width="1" fill="none" fill-rule="evenodd">
        <path d="M15.1400844,23.8571429 C21.8019281,23.8571429 21.840585,22.2864574 26.9001788,21.6428571 C32.2694441,20.9598654 35,21.6428571 35,19.4285714 C35,17.2142857 28.0604136,15 19.5,15 C10.9395864,15 4,16.982739 4,19.4285714 C4,21.8744039 9.42164104,23.8571429 15.1400844,23.8571429 Z M4,19.7023926 L4,24.5357143 C4,26.9815467 9.42164104,28.9642857 15.1400844,28.9642857 C21.8019281,28.9642857 21.840585,27.3936003 26.9001788,26.75 C32.2694441,26.0670083 35,26.75 35,24.5357143 L35,19.7023926" id="outline" stroke="#FFFFFF" stroke-width="2" stroke-linecap="round" stroke-linejoin="round"></path>
        <path d="M12.1965812,20.4494223 C13.4097195,20.4494223 14.3931624,20.0130293 14.3931624,19.4747111 C14.3931624,18.936393 13.4097195,18.5 12.1965812,18.5 C10.9834429,18.5 10,18.936393 10,19.4747111 C10,20.0130293 10.9834429,20.4494223 12.1965812,20.4494223 Z" id="fills" fill="#FFFFFF"></path>
    </g>
</svg>