<?xml version="1.0" encoding="UTF-8"?>
<svg width="40px" height="40px" viewBox="0 0 40 40" version="1.1" xmlns="http://www.w3.org/2000/svg" xmlns:xlink="http://www.w3.org/1999/xlink">
    <!-- Generator: Sketch 63.1 (92452) - https://sketch.com -->
    <title>icon/40/desayunos-white@svg</title>
    <desc>Created with Sketch.</desc>
    <g id="icon/40/desayunos-white" stroke="none" stroke-width="1" fill="none" fill-rule="evenodd">
        <path d="M17.2005957,18.8571429 L30.3994043,18.8571429 C31.5039738,18.8571429 32.3994043,19.7525734 32.3994043,20.8571429 C32.3994043,20.9207787 32.3963672,20.9843783 32.3903033,21.0477246 L31.7657816,27.5717453 C31.4711198,30.6499095 28.8853203,33 25.7930848,33 L21.8069152,33 C18.7146797,33 16.1288802,30.6499095 15.8342184,27.5717453 L15.2096967,21.0477246 C15.1044413,19.9481815 15.9104708,18.9714993 17.0100139,18.8662439 C17.0733602,18.86018 17.1369598,18.8571429 17.2005957,18.8571429 Z M32.6,20.3458647 L35.1081344,20.5810101 C36.1813413,20.6816267 37,21.5520028 37,22.5923913 L37,24.0542253 C37,25.0946138 36.1813413,25.9649899 35.1081344,26.0656064 L32.6,26.3007519 M20.0368202,15.699755 C19.4651243,15.3095834 19.1792764,14.8814305 19.1792764,14.4152963 C19.1792764,13.716095 19.7705326,13.5968104 20.0368202,12.6590837 C20.2143453,12.0339326 19.844929,11.4809047 18.9285714,11 M23.6380107,15.699755 C23.0663148,15.3095834 22.7804669,14.8814305 22.7804669,14.4152963 C22.7804669,13.716095 23.371723,13.5968104 23.6380107,12.6590837 C23.8155358,12.0339326 23.4461195,11.4809047 22.5297619,11 M27.2392012,15.699755 C26.6675053,15.3095834 26.3816573,14.8814305 26.3816573,14.4152963 C26.3816573,13.716095 26.9729135,13.5968104 27.2392012,12.6590837 C27.4167263,12.0339326 27.04731,11.4809047 26.1309524,11 M12.7773438,30 L6,30 C4.8954305,30 4,29.1045695 4,28 L4,17.991333 C4,17.0225016 4,16.469401 4,16.3320312 C4,16.1259766 2.15917969,15.574707 2.15917969,13.5629883 C2.15917969,12.2218424 2.97631836,11.367513 4.6105957,11 L15.579834,11" id="outline" stroke="#FFFFFF" stroke-width="2" stroke-linecap="round" stroke-linejoin="round"></path>
        <path d="M9.17948718,24.0578613 C9.84034073,24.0578613 10.3760684,24.593589 10.3760684,25.2544425 C10.3760684,25.9152961 9.84034073,26.4510237 9.17948718,26.4510237 C8.51863363,26.4510237 7.98290598,25.9152961 7.98290598,25.2544425 C7.98290598,24.593589 8.51863363,24.0578613 9.17948718,24.0578613 Z M11.1965812,18.5009766 C11.8574347,18.5009766 12.3931624,19.0367042 12.3931624,19.6975578 C12.3931624,20.3584113 11.8574347,20.894139 11.1965812,20.894139 C10.5357276,20.894139 10,20.3584113 10,19.6975578 C10,19.0367042 10.5357276,18.5009766 11.1965812,18.5009766 Z M7.69015138,13.6923077 C8.35100492,13.6923077 8.88673257,14.2280353 8.88673257,14.8888889 C8.88673257,15.5497424 8.35100492,16.0854701 7.69015138,16.0854701 C7.02929783,16.0854701 6.49357018,15.5497424 6.49357018,14.8888889 C6.49357018,14.2280353 7.02929783,13.6923077 7.69015138,13.6923077 Z" id="fills" fill="#FFFFFF"></path>
    </g>
</svg>