<?xml version="1.0" encoding="UTF-8"?>
<svg width="40px" height="40px" viewBox="0 0 40 40" version="1.1" xmlns="http://www.w3.org/2000/svg" xmlns:xlink="http://www.w3.org/1999/xlink">
    <!-- Generator: Sketch 63.1 (92452) - https://sketch.com -->
    <title>icon/40/ensaladas-white@svg</title>
    <desc>Created with Sketch.</desc>
    <g id="icon/40/ensaladas-white" stroke="none" stroke-width="1" fill="none" fill-rule="evenodd" stroke-linecap="round" stroke-linejoin="round">
        <path d="M4.90423722,18.853792 C4.90423722,27.4602293 11.8811332,34.4371253 20.4875706,34.4371253 C29.0940079,34.4371253 36.0709039,27.4602293 36.0709039,18.853792 L4.90423722,18.853792 Z M5.90818416,22.9608883 L35.4400242,22.9608883 M13.0202956,15.1244625 C12.4362407,13.3269266 10.2730526,12.0885347 7.47477778,11.3867188 C4.90423722,13.353792 5.32412933,16.5674865 5.90818416,18.3650224 M14.1300522,18.3606061 C13.0475941,16.4494527 12.7721644,14.67583 13.3037629,13.0397379 C14.0338315,10.792818 16.1477875,9.23072308 19.645631,8.35345318 C21.9597995,11.1191603 22.7518495,13.6254738 22.021781,15.8723937 C21.6285793,17.0825442 20.8416825,18.0200526 19.645631,18.832908 M9.54153925,18.4420081 C9.54153925,17.417472 9.15829875,16.1751096 8.80728135,15.6454586 M16.1122815,18.832908 C16.4602092,16.2901099 17.0019722,14.4637379 17.7375706,13.353792 M29.315273,18.5623066 C29.5328123,18.0935913 29.6542372,17.5712051 29.6542372,17.0204586 C29.6542372,14.9954145 28.0126146,13.353792 25.9875706,13.353792 C23.9625265,13.353792 22.3209039,14.9954145 22.3209039,17.0204586 C22.3209039,17.6041073 22.4572703,18.1559058 22.6998798,18.6457311 M32.8625706,18.853792 C34.6344841,18.853792 36.0709039,17.4173722 36.0709039,15.6454586 C36.0709039,13.873545 34.6344841,12.4371253 32.8625706,12.4371253 C31.090657,12.4371253 29.6542372,13.873545 29.6542372,15.6454586 C29.6542372,17.4173722 31.090657,18.853792 32.8625706,18.853792 Z" id="Combined-Shape" stroke="#FFFFFF" stroke-width="2"></path>
    </g>
</svg>