<?xml version="1.0" encoding="UTF-8"?>
<svg width="40px" height="40px" viewBox="0 0 40 40" version="1.1" xmlns="http://www.w3.org/2000/svg" xmlns:xlink="http://www.w3.org/1999/xlink">
    <!-- Generator: Sketch 63.1 (92452) - https://sketch.com -->
    <title>icon/40/hamburguesas-black@svg</title>
    <desc>Created with Sketch.</desc>
    <g id="icon/40/hamburguesas-black" stroke="none" stroke-width="1" fill="none" fill-rule="evenodd">
        <path d="M6,15.8333333 C6,9.57410617 11.0741062,4.5 17.3333333,4.5 L21.6666667,4.5 C27.9258938,4.5 34,9.57410617 34,15.8333333 L6,15.8333333 Z M23.9821777,27 L6,27 C4.8954305,27 4,26.1045695 4,25 C4,23.8954305 4.8954305,23 6,23 L34,23 C35.1045695,23 36,23.8954305 36,25 C36,26.1045695 35.1045695,27 34,27 L28.0895996,27 L28.0895996,27 M33.362491,31.0891003 C33.3246544,36.0049548 30.5779024,35.2048036 24.7591997,35.2048036 L13.699056,35.2048036 C7.98811778,35.2048036 6.49832612,35.6192012 6.29785156,31 L33.362491,31.0891003 Z M36.3869629,20.5 L33.6880493,19.5 C31.94662,18.8547665 30.0316515,18.8547665 28.2902222,19.5 C26.5487928,20.1452335 24.6338244,20.1452335 22.892395,19.5 C21.1509657,18.8547665 19.2359972,18.8547665 17.4945679,19.5 C15.7531385,20.1452335 13.8381701,20.1452335 12.0967407,19.5 C10.3553114,18.8547665 8.44034293,18.8547665 6.69891357,19.5 L4,20.5 L4,20.5 M19.202315,23 L26.5388184,28.8789062 L30.5192871,23 L19.202315,23 Z" id="outline" stroke="#3C3C3C" stroke-width="2" stroke-linecap="round" stroke-linejoin="round"></path>
        <path d="M19.3125438,14.3655536 C19.9733974,14.3655536 20.509125,14.9012813 20.509125,15.5621348 C20.509125,16.2229884 19.9733974,16.758716 19.3125438,16.758716 C18.6516903,16.758716 18.1159626,16.2229884 18.1159626,15.5621348 C18.1159626,14.9012813 18.6516903,14.3655536 19.3125438,14.3655536 Z M21.3296378,8.80866887 C21.9904914,8.80866887 22.526219,9.34439652 22.526219,10.0052501 C22.526219,10.6661036 21.9904914,11.2018313 21.3296378,11.2018313 C20.6687843,11.2018313 20.1330566,10.6661036 20.1330566,10.0052501 C20.1330566,9.34439652 20.6687843,8.80866887 21.3296378,8.80866887 Z M17.823208,4 C18.4840616,4 19.0197892,4.53572765 19.0197892,5.1965812 C19.0197892,5.85743474 18.4840616,6.39316239 17.823208,6.39316239 C17.1623545,6.39316239 16.6266268,5.85743474 16.6266268,5.1965812 C16.6266268,4.53572765 17.1623545,4 17.823208,4 Z" id="fills" fill="#3C3C3C" transform="translate(19.576423, 10.379358) rotate(-90.000000) translate(-19.576423, -10.379358) "></path>
    </g>
</svg>