<?xml version="1.0" encoding="UTF-8"?>
<svg width="40px" height="40px" viewBox="0 0 40 40" version="1.1" xmlns="http://www.w3.org/2000/svg" xmlns:xlink="http://www.w3.org/1999/xlink">
    <!-- Generator: Sketch 63.1 (92452) - https://sketch.com -->
    <title>icon/40/huevos-white@svg</title>
    <desc>Created with Sketch.</desc>
    <g id="icon/40/huevos-white" stroke="none" stroke-width="1" fill="none" fill-rule="evenodd" stroke-linecap="round" stroke-linejoin="round">
        <g id="Group" transform="translate(6.000000, 7.000000)" stroke="#FFFFFF" stroke-width="2">
            <g id="Group-2">
                <path d="M14,19 C16.7614237,19 19,16.7614237 19,14 C19,11.2385763 16.7614237,9 14,9 C11.2385763,9 9,11.2385763 9,14 C9,16.7614237 11.2385763,19 14,19 Z M14.6923077,12 C13.2053872,12 12,13.2053872 12,14.6923077 M16.6118164,27.083252 C20.1489955,27.083252 21.1912546,23.3390903 23.3989258,21.6096191 C26.0170447,19.5586066 27.0776367,18.1948074 27.0776367,14 C27.0776367,9.35693956 24.9851114,5.88559347 21.5048828,3.33862305 C19.1895632,1.64417961 17.0889261,1.63069558e-12 14,1.63069558e-12 C10.3901528,1.63069558e-12 8.80845097,2.79693478 6.32568359,5.04052734 C3.49057381,7.60251978 -1.4831543,7.60251978 0.416748047,14 C0.9801193,15.8970219 1.41521487,16.4422911 3.11401367,19 C4.07042329,20.4399689 2.36157227,22.7004395 6.32568359,26.0881348 C8.2929412,27.7693361 13.9275388,27.083252 16.6118164,27.083252 Z" id="Combined-Shape"></path>
            </g>
        </g>
    </g>
</svg>