<?xml version="1.0" encoding="UTF-8"?>
<svg width="40px" height="40px" viewBox="0 0 40 40" version="1.1" xmlns="http://www.w3.org/2000/svg" xmlns:xlink="http://www.w3.org/1999/xlink">
    <!-- Generator: Sketch 63.1 (92452) - https://sketch.com -->
    <title>icon/40/licores-white@svg</title>
    <desc>Created with Sketch.</desc>
    <g id="icon/40/licores-white" stroke="none" stroke-width="1" fill="none" fill-rule="evenodd" stroke-linecap="round" stroke-linejoin="round">
        <path d="M16,11 C16,12.5954047 16,12.4788276 16,13.2894287 C16,13.5980029 16,14.7543262 16.3273743,15.4531305 M17.5102539,37 C15.4031576,37 12.2141927,37 8,37 C6.8954305,37 6,36.1045695 6,35 L6,18 C6,16.8954305 6.8954305,16 8,16 C8.94509549,16 9.6539171,16 10.1264648,16 C11,16 11,13.7659912 11,13.2894287 C11,12.4960259 11,12.6126031 11,11 M10.5,7 L16.5,7 C17.0522847,7 17.5,7.44771525 17.5,8 L17.5,10 C17.5,10.5522847 17.0522847,11 16.5,11 L10.5,11 C9.94771525,11 9.5,10.5522847 9.5,10 L9.5,8 C9.5,7.44771525 9.94771525,7 10.5,7 Z M11,22 L15,22 C15.5522847,22 16,22.4477153 16,23 L16,28 C16,28.5522847 15.5522847,29 15,29 L11,29 C10.4477153,29 10,28.5522847 10,28 L10,23 C10,22.4477153 10.4477153,22 11,22 Z M25,3 L28,3 C28.5522847,3 29,3.44771525 29,4 L29,6 C29,6.55228475 28.5522847,7 28,7 L25,7 C24.4477153,7 24,6.55228475 24,6 L24,4 C24,3.44771525 24.4477153,3 25,3 Z M28,7 C28,8.59540473 28,8.47882758 28,9.28942871 C28,9.74019368 28,11 29.0205078,11 C33,11 33,14.8954305 33,16 L33,35 C33,36.1045695 32.1045695,37 31,37 L22,37 C20.8954305,37 20,36.1045695 20,35 L20,16 C20,14.8954305 20,11 24.1264648,11 C25,11 25,9.76599121 25,9.28942871 C25,8.49602593 25,8.61260308 25,7 L28,7 Z M25,19 L28,19 C28.5522847,19 29,19.4477153 29,20 L29,28 C29,28.5522847 28.5522847,29 28,29 L25,29 C24.4477153,29 24,28.5522847 24,28 L24,20 C24,19.4477153 24.4477153,19 25,19 Z" id="Combined-Shape" stroke="#FFFFFF" stroke-width="2"></path>
    </g>
</svg>