<?xml version="1.0" encoding="UTF-8"?>
<svg width="40px" height="40px" viewBox="0 0 40 40" version="1.1" xmlns="http://www.w3.org/2000/svg" xmlns:xlink="http://www.w3.org/1999/xlink">
    <!-- Generator: Sketch 63.1 (92452) - https://sketch.com -->
    <title>icon/40/malteadas-white@svg</title>
    <desc>Created with Sketch.</desc>
    <g id="icon/40/malteadas-white" stroke="none" stroke-width="1" fill="none" fill-rule="evenodd" stroke-linecap="round" stroke-linejoin="round">
        <path d="M25.747226,16 C25.747226,16.0745698 25.7388851,16.1489056 25.7223588,16.2216211 L21.1769043,36.2216211 C21.0734297,36.6769095 20.6686703,37 20.2017714,37 L18.7982286,37 C18.3313297,37 17.9265703,36.6769095 17.8230957,36.2216211 L13.1245117,15.6475068 M15.1175729,11.9616942 L13.5888672,5 L8,5.75390625 M14,37 L25,37 M20.5733254,9 C19.3617126,9 18.3115319,9.65661458 17.7955593,10.6157066 C17.5713898,10.5286863 17.3246036,10.4808471 17.0660559,10.4808471 C15.9899385,10.4808471 15.1175729,11.3095944 15.1175729,12.331906 C15.1175729,12.3325775 15.1175733,12.3332489 15.117574,12.3339202 C14.7928833,12.0997209 14.3876505,11.9616942 13.948483,11.9616942 C12.8723656,11.9616942 12,12.7904415 12,13.8127531 C12,14.8350647 12.8723656,15.663812 13.948483,15.663812 C14.2276059,15.663812 14.4930207,15.6080558 14.73306,15.5076276 L14.7278763,15.6475068 C14.7278763,17.078743 15.9491881,18.2389893 17.4557525,18.2389893 C18.3560167,18.2389893 19.154423,17.8246896 19.6512386,17.1858366 C20.0766957,17.6165519 20.6816973,17.8850827 21.3527186,17.8850827 C22.6440596,17.8850827 23.6908983,16.8905859 23.6908983,15.663812 C23.6908983,15.6207673 23.6896095,15.5780086 23.6870665,15.5355688 C23.9319306,15.618805 24.1955784,15.663812 24.4702915,15.663812 C25.7616325,15.663812 26.8084712,14.6693153 26.8084712,13.4425414 C26.8084712,12.2157674 25.7616325,11.2212707 24.4702915,11.2212707 C24.1732225,11.2212707 23.8890929,11.273901 23.6276707,11.3698821 C23.3402781,10.0179798 22.0819396,9 20.5733254,9 Z" id="Combined-Shape" stroke="#FFFFFF" stroke-width="2"></path>
    </g>
</svg>