<?xml version="1.0" encoding="UTF-8"?>
<svg width="40px" height="40px" viewBox="0 0 40 40" version="1.1" xmlns="http://www.w3.org/2000/svg" xmlns:xlink="http://www.w3.org/1999/xlink">
    <!-- Generator: Sketch 63.1 (92452) - https://sketch.com -->
    <title>icon/40/pastas-white@svg</title>
    <desc>Created with Sketch.</desc>
    <g id="icon/40/pastas-white" stroke="none" stroke-width="1" fill="none" fill-rule="evenodd" stroke-linecap="round" stroke-linejoin="round">
        <path d="M37.5,23.6721598 L35.6682741,27.3793527 C34.5727472,29.5965672 32.31391,31 29.8408108,31 L10.1591892,31 C7.68609004,31 5.42725277,29.5965672 4.33172591,27.3793527 L2.5,23.6721598 L2.5,23.6721598 L37.5,23.6721598 Z M21.0907038,23.4282166 C21.140809,23.0389285 21.1666667,22.6426095 21.1666667,22.25 C21.1666667,17.4175084 17.2491582,13.5 12.4166667,13.5 C7.58417511,13.5 3.66666667,17.4175084 3.66666667,22.25 C3.66666667,22.7127821 3.70259365,23.1546182 3.77181067,23.5862149 M31.5345763,17.226943 C30.8138112,13.1205007 27.2296549,10 22.9166667,10 C19.8403261,10 17.1347855,11.5875834 15.5746433,13.9881519 M17.55327,23.3627529 C17.6275801,23.0034076 17.6666667,22.6239002 17.6666667,22.25 C17.6666667,19.3505051 15.3161616,17 12.4166667,17 C9.51717173,17 7.16666667,19.3505051 7.16666667,22.25 C7.16666667,22.600061 7.20092797,22.9301471 7.26628027,23.2531305 M27.9502309,17.2532741 C27.3058674,15.0829752 25.2961289,13.5 22.9166667,13.5 C21.1294671,13.5 19.5508442,14.3930229 18.602679,15.7571876 M35.1666667,22.25 C35.1666667,19.3505051 32.8161616,17 29.9166667,17 C27.0171717,17 24.6666667,19.3505051 24.6666667,22.25 M14.099051,22.7422793 C14.1430828,22.5887491 14.1666667,22.4176829 14.1666667,22.25 C14.1666667,21.2835017 13.383165,20.5 12.4166667,20.5 C11.4501684,20.5 10.6666667,21.2835017 10.6666667,22.25 C10.6666667,22.4241712 10.692111,22.5835081 10.7394853,22.7422793 M25.5512085,19.2044474 C25.3555298,18.3048096 24.4292603,17 23.0912679,17 C21.7532756,17 20.5833333,17.9028458 20.5833333,18.8693441 M31.599051,22.7422793 C31.6430828,22.5887491 31.6666667,22.4176829 31.6666667,22.25 C31.6666667,21.2835017 30.883165,20.5 29.9166667,20.5 C28.9501684,20.5 28.1666667,21.2835017 28.1666667,22.25 C28.1666667,22.4241712 28.192111,22.5835081 28.2394853,22.7422793" id="Combined-Shape" stroke="#FFFFFF" stroke-width="2"></path>
    </g>
</svg>