<?xml version="1.0" encoding="UTF-8"?>
<svg width="40px" height="40px" viewBox="0 0 40 40" version="1.1" xmlns="http://www.w3.org/2000/svg" xmlns:xlink="http://www.w3.org/1999/xlink">
    <!-- Generator: Sketch 63.1 (92452) - https://sketch.com -->
    <title>icon/40/pescados-mariscos-white@svg</title>
    <desc>Created with Sketch.</desc>
    <g id="icon/40/pescados-mariscos-white" stroke="none" stroke-width="1" fill="none" fill-rule="evenodd">
        <path d="M24.5,28.4444444 C30.3040019,28.4444444 34.3971378,26.0951774 36.7794079,21.3966434 L36.7793921,21.3966354 C36.9235137,21.1123855 36.9235133,20.776462 36.7793911,20.4922124 C34.3971186,15.7937004 30.3039883,13.4444444 24.5,13.4444444 C18.8111653,13.4444444 13.5622615,15.7014047 8.75328867,20.2153254 L8.75328992,20.2153267 C8.35060861,20.5933017 8.33058019,21.2261487 8.70855517,21.62883 C8.72299123,21.6442096 8.73791029,21.6591287 8.75328996,21.6735647 C13.5622625,26.1874845 18.8111658,28.4444444 24.5,28.4444444 Z M9.390625,22.8591309 L6.69179195,25.0886629 C5.77273458,25.7013678 4.53099589,25.4530201 3.91829097,24.5339627 C3.49913161,23.9052237 3.47012117,23.0939249 3.84330248,22.4368533 L4.63751377,21.0384615 L3.84330248,19.6400698 C3.29780583,18.6795974 3.63421013,17.4587683 4.5946825,16.9132717 C5.25175409,16.5400904 6.06305291,16.5691008 6.69179195,16.9882602 L9.390625,18.8503418 M24.5634766,13.0212402 C23.9671224,12.3425293 23.0395508,11.7484538 21.7807617,11.2390137 C19.8925781,10.4748535 13.907959,10.9100206 12.5935059,13.4444444 C14.3153483,13.8727575 15.4464518,14.314209 15.9868164,14.7687988 M24.3831502,17.1027832 C23.4610501,18.2732401 23,19.4993621 23,20.7811492 C23,22.0629363 23.4610501,23.2434426 24.3831502,24.3226682 M20,18.1027832 C19.3333333,18.9490086 19,19.8354792 19,20.762195 C19,21.6889108 19.3333333,22.5424018 20,23.3226682" id="outline" stroke="#FFFFFF" stroke-width="2" stroke-linecap="round" stroke-linejoin="round"></path>
        <circle id="fills" fill="#FFFFFF" cx="29.1965812" cy="19.1965812" r="1.1965812"></circle>
    </g>
</svg>