<?xml version="1.0" encoding="UTF-8"?>
<svg width="40px" height="40px" viewBox="0 0 40 40" version="1.1" xmlns="http://www.w3.org/2000/svg" xmlns:xlink="http://www.w3.org/1999/xlink">
    <!-- Generator: Sketch 63.1 (92452) - https://sketch.com -->
    <title>icon/40/pizzas-black@svg</title>
    <desc>Created with Sketch.</desc>
    <g id="icon/40/pizzas-black" stroke="none" stroke-width="1" fill="none" fill-rule="evenodd">
        <path d="M19.6325965,5 L33,32 C29.0229492,33.7767428 24.5671481,34.6651142 19.6325965,34.6651142 C14.698045,34.6651142 10.1538462,33.7767428 6,32 L19.6325965,5 Z M30.7626268,27.6959248 C27.3718086,28.8805126 23.6617985,29.4728065 19.6325965,29.4728065 C15.6556635,29.4728065 11.9322773,28.89578 8.46243813,27.741727 M17.4230769,26.8076923 C19.1436563,26.8076923 20.5384615,25.4128871 20.5384615,23.6923077 C20.5384615,21.9717283 19.1436563,20.5769231 17.4230769,20.5769231 C15.7024975,20.5769231 14.3076923,21.9717283 14.3076923,23.6923077 C14.3076923,25.4128871 15.7024975,26.8076923 17.4230769,26.8076923 Z M22.1121754,10.2327374 C20.6308723,10.4732987 19.5,11.7584308 19.5,13.3076923 C19.5,15.0282717 20.8948052,16.4230769 22.6153846,16.4230769 C23.412251,16.4230769 24.1392398,16.1238951 24.6901514,15.6317311" id="outline" stroke="#3C3C3C" stroke-width="2" stroke-linecap="round" stroke-linejoin="round"></path>
        <path d="M24.6901514,23.6923077 C25.3510049,23.6923077 25.8867326,24.2280353 25.8867326,24.8888889 C25.8867326,25.5497424 25.3510049,26.0854701 24.6901514,26.0854701 C24.0292978,26.0854701 23.4935702,25.5497424 23.4935702,24.8888889 C23.4935702,24.2280353 24.0292978,23.6923077 24.6901514,23.6923077 Z M23.1794872,19.0578613 C23.8403407,19.0578613 24.3760684,19.593589 24.3760684,20.2544425 C24.3760684,20.9152961 23.8403407,21.4510237 23.1794872,21.4510237 C22.5186336,21.4510237 21.982906,20.9152961 21.982906,20.2544425 C21.982906,19.593589 22.5186336,19.0578613 23.1794872,19.0578613 Z M17.1965812,16 C17.8574347,16 18.3931624,16.5357276 18.3931624,17.1965812 C18.3931624,17.8574347 17.8574347,18.3931624 17.1965812,18.3931624 C16.5357276,18.3931624 16,17.8574347 16,17.1965812 C16,16.5357276 16.5357276,16 17.1965812,16 Z" id="fills" fill="#3C3C3C"></path>
    </g>
</svg>