<?xml version="1.0" encoding="UTF-8"?>
<svg width="40px" height="40px" viewBox="0 0 40 40" version="1.1" xmlns="http://www.w3.org/2000/svg" xmlns:xlink="http://www.w3.org/1999/xlink">
    <!-- Generator: Sketch 63.1 (92452) - https://sketch.com -->
    <title>icon/40/sandwiches-black@svg</title>
    <desc>Created with Sketch.</desc>
    <g id="icon/40/sandwiches-black" stroke="none" stroke-width="1" fill="none" fill-rule="evenodd" stroke-linecap="round" stroke-linejoin="round">
        <path d="M8,11 L18,11 L32,11 C34.209139,11 36,12.790861 36,15 L36,17 C36,18.1045695 35.1045695,19 34,19 L6,19 C4.8954305,19 4,18.1045695 4,17 L4,15 C4,12.790861 5.790861,11 8,11 Z M34,30 L22,30 L22,30 L6,30 C4.8954305,30 4,29.1045695 4,28 L4,27 C4,26.4477153 4.44771525,26 5,26 L35,26 C35.5522847,26 36,26.4477153 36,27 L36,28 C36,29.1045695 35.1045695,30 34,30 Z M10.9694824,11 C11.9361165,11.3590495 12.4194336,12.6923828 12.4194336,15 M26,11 C26.9666341,11.3590495 27.4499512,12.6923828 27.4499512,15 M18.5,11 C19.4666341,11.3590495 19.9499512,12.6923828 19.9499512,15 M3.69638672,22.5 L6.72254118,22.9093395 C7.16733727,22.9695059 7.6182096,22.9695059 8.0630057,22.9093395 L14.1153146,22.0906605 C14.5601107,22.0304941 15.010983,22.0304941 15.4557791,22.0906605 L21.5080881,22.9093395 C21.9528841,22.9695059 22.4037565,22.9695059 22.8485526,22.9093395 L28.9008615,22.0906605 C29.3456576,22.0304941 29.7965299,22.0304941 30.241326,22.0906605 L36.9638672,23 L36.9638672,23" id="Combined-Shape" stroke="#3C3C3C" stroke-width="2"></path>
    </g>
</svg>