<?xml version="1.0" encoding="UTF-8"?>
<svg width="40px" height="40px" viewBox="0 0 40 40" version="1.1" xmlns="http://www.w3.org/2000/svg" xmlns:xlink="http://www.w3.org/1999/xlink">
    <!-- Generator: Sketch 63.1 (92452) - https://sketch.com -->
    <title>icon/40/sopas-black@svg</title>
    <desc>Created with Sketch.</desc>
    <g id="icon/40/sopas-black" stroke="none" stroke-width="1" fill="none" fill-rule="evenodd" stroke-linecap="round" stroke-linejoin="round">
        <path d="M35,20.7189941 L33.2110254,28.0424633 C32.5001374,30.9526034 29.8924017,33 26.896692,33 L14.103308,33 C11.1075983,33 8.49986263,30.9526034 7.78897459,28.0424633 L6,20.7189941 L6,20.7189941 L35,20.7189941 Z M19.1179282,15.9815063 C18.0253839,15.2358656 17.4791118,14.4176404 17.4791118,13.5268307 C17.4791118,12.1906162 18.6090369,11.9626563 19.1179282,10.1706059 C19.457189,8.97590564 18.7512129,7.91903701 17,7 M24.1179282,15.9815063 C23.0253839,15.2358656 22.4791118,14.4176404 22.4791118,13.5268307 C22.4791118,12.1906162 23.6090369,11.9626563 24.1179282,10.1706059 C24.457189,8.97590564 23.7512129,7.91903701 22,7 M10.8618164,20.7189941 L6,12" id="Combined-Shape" stroke="#3C3C3C" stroke-width="2"></path>
    </g>
</svg>