<?xml version="1.0" encoding="UTF-8"?>
<svg width="40px" height="40px" viewBox="0 0 40 40" version="1.1" xmlns="http://www.w3.org/2000/svg" xmlns:xlink="http://www.w3.org/1999/xlink">
    <!-- Generator: Sketch 63.1 (92452) - https://sketch.com -->
    <title>icon/40/waffles-white@svg</title>
    <desc>Created with Sketch.</desc>
    <g id="icon/40/waffles-white" stroke="none" stroke-width="1" fill="none" fill-rule="evenodd" stroke-linecap="round" stroke-linejoin="round">
        <path d="M21,28.5008194 C21,29.6053889 20.1045695,30.5008194 19,30.5008194 L6,30.5008194 C4.8954305,30.5008194 4,29.6053889 4,28.5008194 L4,15.5008194 C4,14.3962499 4.8954305,13.5008194 6,13.5008194 L19,13.5008194 M8,16.5008194 L10,16.5008194 C10.5522847,16.5008194 11,16.9485347 11,17.5008194 L11,19.5008194 C11,20.0531042 10.5522847,20.5008194 10,20.5008194 L8,20.5008194 C7.44771525,20.5008194 7,20.0531042 7,19.5008194 L7,17.5008194 C7,16.9485347 7.44771525,16.5008194 8,16.5008194 Z M15,20.5008194 L15,20.5008194 C14.4477153,20.5008194 14,20.0531042 14,19.5008194 L14,17.5008194 C14,16.9485347 14.4477153,16.5008194 15,16.5008194 L17,16.5008194 M8,23.5008194 L10,23.5008194 C10.5522847,23.5008194 11,23.9485347 11,24.5008194 L11,26.5008194 C11,27.0531042 10.5522847,27.5008194 10,27.5008194 L8,27.5008194 C7.44771525,27.5008194 7,27.0531042 7,26.5008194 L7,24.5008194 C7,23.9485347 7.44771525,23.5008194 8,23.5008194 Z M18,26.5008194 L18,26.5008194 C18,27.0531042 17.5522847,27.5008194 17,27.5008194 L15,27.5008194 C14.4477153,27.5008194 14,27.0531042 14,26.5008194 L14,24.5008194 C14,23.9485347 14.4477153,23.5008194 15,23.5008194 L15,23.5008194 L15,23.5008194 M18.15224,21.2586642 L24.65224,10.000334 C25.2045248,9.0437487 26.4277056,8.71599839 27.3842908,9.26828314 L38.6426211,15.7682831 C39.5992063,16.3205679 39.9269566,17.5437487 39.3746719,18.500334 L32.8746719,29.7586642 C32.3223871,30.7152494 31.0992063,31.0429998 30.1426211,30.490715 L18.8842908,23.990715 C17.9277056,23.4384303 17.5999553,22.2152494 18.15224,21.2586642 Z M21.7503162,21.0266134 L22.7503162,19.2945626 C23.0264586,18.81627 23.638049,18.6523948 24.1163417,18.9285372 L25.8483925,19.9285372 C26.3266851,20.2046796 26.4905602,20.81627 26.2144179,21.2945626 L25.2144179,23.0266134 C24.9382755,23.504906 24.3266851,23.6687812 23.8483925,23.3926388 L22.1163417,22.3926388 C21.638049,22.1164964 21.4741739,21.504906 21.7503162,21.0266134 Z M25.2503162,14.9644356 L26.2503162,13.2323848 C26.5264586,12.7540921 27.138049,12.590217 27.6163417,12.8663594 L29.3483925,13.8663594 C29.8266851,14.1425017 29.9905602,14.7540921 29.7144179,15.2323848 L28.7144179,16.9644356 C28.4382755,17.4427282 27.8266851,17.6066033 27.3483925,17.330461 L25.6163417,16.330461 C25.138049,16.0543186 24.9741739,15.4427282 25.2503162,14.9644356 Z M27.8124941,24.5266134 L28.8124941,22.7945626 C29.0886364,22.31627 29.7002269,22.1523948 30.1785195,22.4285372 L31.9105703,23.4285372 C32.3888629,23.7046796 32.5527381,24.31627 32.2765957,24.7945626 L31.2765957,26.5266134 C31.0004533,27.004906 30.3888629,27.1687812 29.9105703,26.8926388 L28.1785195,25.8926388 C27.7002269,25.6164964 27.5363517,25.004906 27.8124941,24.5266134 Z M31.3124941,18.4644356 L32.3124941,16.7323848 C32.5886364,16.2540921 33.2002269,16.090217 33.6785195,16.3663594 L35.4105703,17.3663594 C35.8888629,17.6425017 36.0527381,18.2540921 35.7765957,18.7323848 L34.7765957,20.4644356 C34.5004533,20.9427282 33.8888629,21.1066033 33.4105703,20.830461 L31.6785195,19.830461 C31.2002269,19.5543186 31.0363517,18.9427282 31.3124941,18.4644356 Z" id="Combined-Shape" stroke="#FFFFFF" stroke-width="2" transform="translate(21.821478, 19.879499) rotate(-315.000000) translate(-21.821478, -19.879499) "></path>
    </g>
</svg>