<?xml version="1.0" encoding="UTF-8"?>
<svg width="56px" height="56px" viewBox="0 0 56 56" version="1.1" xmlns="http://www.w3.org/2000/svg" xmlns:xlink="http://www.w3.org/1999/xlink">
    <title>icon/56/menu</title>
    <g id="icon/56/menu" stroke="none" stroke-width="1" fill="none" fill-rule="evenodd">
        <circle id="Oval" stroke="#A8A8A8" stroke-width="1.5" stroke-linecap="round" stroke-linejoin="round" cx="28.5" cy="27.5" r="25.5"></circle>
        <path d="M38,36.6703695 L38,46.8651326 M19,46.8651326 L19,33.5833333 C19,32.7088825 19.7733263,32 20.7272727,32 L36.2727273,32 C37.2266737,32 38,32.7088825 38,33.5833333 L38,37.1531779 M23.75,37.1531779 L32.3180135,37.1531779 M23.75,41.9031779 L27.5680135,41.9031779 M23.75,46.6531779 L24.795634,46.6531779" id="Combined-Shape" stroke="#A8A8A8" stroke-width="1.5" stroke-linecap="round" stroke-linejoin="round"></path>
        <path d="M28.7578125,20.6816406 L28.7578125,20.5820312 L28.7578125,20.5820312 C28.7578125,19.28125 29.1914062,18.6132812 30.7265625,17.6289062 C32.3320312,16.5976562 33.1992187,15.3671875 33.1992187,13.6328125 C33.1992187,11.2421875 31.21875,9.4375 28.3945312,9.4375 C25.9204425,9.4375 24.2938418,10.7322735 23.7137901,12.564105 C23.6214307,12.8557804 23.3728027,13.4602051 23.9394531,13.8554687 C24.9815674,13.9709473 25.244662,12.7893146 25.3034126,12.6569143 C25.8110078,11.5129994 26.9066355,10.8320312 28.3359375,10.8320312 C30.2226562,10.8320312 31.546875,12.0390625 31.546875,13.703125 C31.546875,14.9921875 30.9960937,15.8007812 29.5195312,16.7617187 C27.8671875,17.8164062 27.1875,18.8007812 27.1992187,20.359375 L27.1992187,20.6816406 C27.1992187,21.1120344 27.5481218,21.4609375 27.9785156,21.4609375 C28.4089094,21.4609375 28.7578125,21.1120344 28.7578125,20.6816406 Z M28.125,26.6875 C28.9101562,26.6875 29.484375,26.1015625 29.484375,25.3164062 C29.484375,24.5195312 28.9101562,23.9335938 28.125,23.9335938 C27.328125,23.9335938 26.7539062,24.5195312 26.7539062,25.3164062 C26.7539062,26.1015625 27.328125,26.6875 28.125,26.6875 Z" id="?" fill="#A8A8A8" fill-rule="nonzero"></path>
    </g>
</svg>