<svg xmlns="http://www.w3.org/2000/svg" viewBox="0 0 20.64 20.64"><defs><style>.cls-1{fill:#3c3c3c;}</style></defs><g id="Layer_2" data-name="Layer 2"><g id="Layer_1-2" data-name="Layer 1"><path class="cls-1" d="M.75,20.64a.74.74,0,0,1-.53-.22.75.75,0,0,1,0-1.06L4.64,15A37.28,37.28,0,0,1,.18,10.43a.77.77,0,0,1,0-.95C5.07,3,10.22,1.25,15.22,4.36L19.36.22a.75.75,0,0,1,1.06,0,.74.74,0,0,1,0,1.06L1.28,20.42A.74.74,0,0,1,.75,20.64Zm1-10.74a32.2,32.2,0,0,0,4,4l1-1.05a4.51,4.51,0,0,1-1-2.9,4.61,4.61,0,0,1,7.5-3.57l.91-.9C10,3.07,5.92,4.57,1.72,9.9Zm8.6-3.06a3.1,3.1,0,0,0-3.1,3.09,3,3,0,0,0,.6,1.83l4.33-4.33A3.14,3.14,0,0,0,10.32,6.84Zm0,10.18a8.65,8.65,0,0,1-2.89-.52.76.76,0,0,1-.45-1,.75.75,0,0,1,1-.44c3.63,1.31,7.27-.41,11-5.12C17.81,8.72,17,7.86,16.56,7.4a.75.75,0,0,1,0-1.06.75.75,0,0,1,1.06,0c.54.54,1.47,1.55,2.83,3.1a.74.74,0,0,1,0,1C17.17,14.79,13.75,17,10.32,17Zm0-2.49a.75.75,0,0,1,0-1.5,3.1,3.1,0,0,0,3.1-3.1.75.75,0,0,1,1.5,0A4.6,4.6,0,0,1,10.32,14.53Z"/></g></g></svg>