<?xml version="1.0" encoding="UTF-8"?>
<svg width="24px" height="24px" viewBox="0 0 24 24" version="1.1" xmlns="http://www.w3.org/2000/svg" xmlns:xlink="http://www.w3.org/1999/xlink">
    <!-- Generator: Sketch 63.1 (92452) - https://sketch.com -->
    <title>icon/24/widget-config-yellow</title>
    <desc>Created with Sketch.</desc>
    <g id="icon/24/widget-config-yellow" stroke="none" stroke-width="1" fill="none" fill-rule="evenodd" stroke-linecap="round" stroke-linejoin="round">
        <path d="M12.0010886,14.7838266 C10.466683,14.7838266 9.21855323,13.5354932 9.21855323,12.0010877 C9.21855323,10.4664785 10.466683,9.21834872 12.0010886,9.21834872 C13.5356977,9.21834872 14.7840311,10.4664785 14.7840311,12.0010877 C14.7840311,13.5354932 13.5356977,14.7838266 12.0010886,14.7838266 M20.6844476,13.7584462 C19.9280361,13.50373 19.4208434,12.796185 19.4208434,12.0000696 C19.4208434,11.2039542 19.9292578,10.4964092 20.6844476,10.2418966 C20.914527,10.1657464 21.0456519,9.9230432 20.9853833,9.68726273 C20.7713891,8.85388668 20.4417444,8.05492073 20.0033719,7.30848618 C19.8765228,7.09286311 19.6010383,7.01671294 19.3811395,7.13643567 C19.1101344,7.28405297 18.8030904,7.36183202 18.4931959,7.36183202 C17.4708697,7.36183202 16.6381045,6.52927041 16.6381045,5.5067406 C16.6381045,5.19603162 16.7160871,4.89000567 16.8637045,4.61900066 C16.9832236,4.39910177 16.907277,4.12361734 16.6916539,3.99676826 C15.9460338,3.55839576 15.1462534,3.22875104 14.3128774,3.01475685 C14.0773005,2.95408105 13.8362262,3.08561316 13.7582435,3.31569255 C13.5037309,4.07210399 12.7961859,4.57929669 12.0000705,4.57929669 C11.2039551,4.57929669 10.4964101,4.07108594 10.2418975,3.31569255 C10.1655437,3.08561316 9.9230441,2.95428466 9.68726363,3.01475685 C8.85388758,3.22875104 8.05492164,3.55839576 7.30848709,3.99676826 C7.09286402,4.12361734 7.01671385,4.39910177 7.13623296,4.61900066 C7.28405388,4.89000567 7.36183293,5.19704967 7.36183293,5.5067406 C7.36183293,6.52927041 6.52927132,7.36183202 5.5067415,7.36183202 C5.19603253,7.36183202 4.88898853,7.28384936 4.61900156,7.13643567 C4.39910268,7.01671294 4.12341463,7.09286311 3.99656555,7.30848618 C3.55839667,8.05410629 3.22875195,8.85388668 3.01475776,9.68726273 C2.95408195,9.92283959 3.08561406,10.1639139 3.31548984,10.2418966 C4.07190128,10.4964092 4.5792976,11.2039542 4.5792976,12.0000696 C4.5792976,12.796185 4.07108684,13.50373 3.31548984,13.7584462 C3.08561406,13.8343928 2.95428556,14.077096 3.01475776,14.3128765 C3.22875195,15.1462525 3.55839667,15.9452185 3.99656555,16.691653 C4.12341463,16.9072761 4.39910268,16.9834263 4.61900156,16.8637035 C4.88980297,16.7160862 5.19705058,16.6383072 5.5067415,16.6383072 C6.52927132,16.6383072 7.36183293,17.4708688 7.36183293,18.4933986 C7.36183293,18.8041076 7.28385027,19.1101335 7.13623296,19.3811386 C7.01671385,19.6010374 7.09286402,19.8765219 7.30848709,20.003371 C8.05410719,20.4417435 8.85388758,20.7713882 9.68726363,20.9853824 C9.72594955,20.9961737 9.76504268,21.0006531 9.80271055,21.0006531 C9.99715817,21.0004495 10.1773531,20.876451 10.2416939,20.6844467 C10.4962065,19.9280352 11.2037515,19.4208425 11.9998669,19.4208425 C12.7959823,19.4208425 13.5035273,19.9292569 13.7580399,20.6844467 C13.8341901,20.9145261 14.0768933,21.0458546 14.3126738,20.9853824 C15.1460498,20.7713882 15.9450158,20.4417435 16.6914503,20.003371 C16.9070734,19.8765219 16.98302,19.6010374 16.8635008,19.3811386 C16.7156799,19.1101335 16.6379009,18.8030895 16.6379009,18.4933986 C16.6379009,17.4708688 17.4706661,16.6383072 18.4929923,16.6383072 C18.8039049,16.6383072 19.1099308,16.7162899 19.3809359,16.8637035 C19.6008347,16.9834263 19.8763192,16.9072761 20.0031683,16.691653 C20.4415407,15.9460329 20.7711855,15.1462525 20.9851797,14.3128765 C21.0458555,14.077096 20.914527,13.8362253 20.6844476,13.7584462" id="Combined-Shape" stroke="#F2A412" stroke-width="2"></path>
    </g>
</svg>