<svg xmlns="http://www.w3.org/2000/svg" viewBox="0 0 31.02 26.08"><defs><style>.cls-1{fill:#fff;}</style></defs><g id="Layer_2" data-name="Layer 2"><g id="Layer_1-2" data-name="Layer 1"><g id="Staff"><g id="Staff---Solicitudes-nuevas---2"><g id="menu-lvl-2"><g id="misc_order-summary" data-name="misc/order-summary"><g id="btn_special_circle_big_filled" data-name="btn/special/circle/big/filled"><g id="icon_40_comida-italiana" data-name="icon/40/comida-italiana"><path class="cls-1" d="M10.16,26.08a1,1,0,0,1-.71-.29L.29,16.63A1,1,0,0,1,0,15.9a1,1,0,0,1,.32-.71l4.26-3.94A1,1,0,0,1,6,11.3l4.2,4.38L25.29.3A1.12,1.12,0,0,1,26,0a1,1,0,0,1,.71.31l4,4.22a1,1,0,0,1,0,1.4L10.87,25.79A1,1,0,0,1,10.16,26.08ZM2.44,16l7.72,7.72L28.62,5.21,26,2.44,10.88,17.82a1,1,0,0,1-.71.29h0a1,1,0,0,1-.71-.3L5.22,13.39Z"/></g></g></g></g></g></g></g></g></svg>