<svg xmlns="http://www.w3.org/2000/svg" viewBox="0 0 22.4 17.14"><defs><style>.cls-1{fill:#f2a412;}</style></defs><g id="Layer_2" data-name="Layer 2"><g id="Layer_1-2" data-name="Layer 1"><path class="cls-1" d="M18,17.14H4.18a1.34,1.34,0,0,1-1.33-1.33v-1.4a1.33,1.33,0,0,1,1-1.28A7.32,7.32,0,0,1,10.06,6.6V6.49A.75.75,0,0,1,10.3,5h1.61a.75.75,0,0,1,0,1.5h-.35a7.32,7.32,0,0,1,6.82,6.59,1.33,1.33,0,0,1,1,1.28v1.4A1.33,1.33,0,0,1,18,17.14ZM4.35,15.64h13.5V14.58H4.35Zm1-2.56H16.87a5.81,5.81,0,0,0-11.53,0ZM19.89,11a.75.75,0,0,1-.75-.65.76.76,0,0,1,.66-.84l1.76-.22a.77.77,0,0,1,.84.66.74.74,0,0,1-.66.83L20,11ZM2.52,11h-.1L.66,10.75A.74.74,0,0,1,0,9.92a.76.76,0,0,1,.83-.66l1.77.22A.75.75,0,0,1,2.52,11ZM4,7.06a.75.75,0,0,1-.43-.13l-1.46-1a.75.75,0,0,1-.18-1,.74.74,0,0,1,1-.18l1.46,1A.75.75,0,0,1,4,7.06Zm14.41,0a.75.75,0,0,1-.62-.32.74.74,0,0,1,.19-1l1.45-1a.75.75,0,0,1,1.05.18.76.76,0,0,1-.19,1l-1.45,1A.77.77,0,0,1,18.41,7.06ZM15.26,4.28a.73.73,0,0,1-.35-.09.75.75,0,0,1-.31-1l.84-1.57a.73.73,0,0,1,1-.31.74.74,0,0,1,.31,1l-.83,1.57A.77.77,0,0,1,15.26,4.28Zm-8.12,0a.75.75,0,0,1-.66-.4L5.64,2.31A.75.75,0,0,1,7,1.61L7.8,3.18a.74.74,0,0,1-.31,1A.73.73,0,0,1,7.14,4.28Zm4.06-1a.76.76,0,0,1-.75-.75V.75a.75.75,0,0,1,1.5,0V2.53A.75.75,0,0,1,11.2,3.28Z"/></g></g></svg>