<?xml version="1.0" encoding="UTF-8"?>
<svg width="24px" height="24px" viewBox="0 0 24 24" version="1.1" xmlns="http://www.w3.org/2000/svg" xmlns:xlink="http://www.w3.org/1999/xlink">
    <!-- Generator: Sketch 63.1 (92452) - https://sketch.com -->
    <title>icon/24/financial-reports</title>
    <desc>Created with Sketch.</desc>
    <g id="icon/24/financial-reports" stroke="none" stroke-width="1" fill="none" fill-rule="evenodd">
        <path d="M12.9394361,17.4477741 L11.4485029,17.4477741 L11.4485029,16.060558 C10.6014758,15.9222678 9.94460744,15.5873514 9.47787819,15.0557986 C9.01114894,14.5242459 8.75185881,13.9559683 8.7,13.3509489 L10.4891198,12.9490452 C10.5236924,13.3552725 10.683588,13.6945104 10.9688114,13.9667692 C11.2540348,14.2390279 11.660256,14.3751552 12.1874872,14.3751552 C12.5159263,14.3751552 12.7838595,14.3016897 12.9912947,14.1547564 C13.1987299,14.0078231 13.302446,13.809034 13.302446,13.5583831 C13.302446,13.1867283 13.0345128,12.9404027 12.4986385,12.8193988 L11.3447859,12.5471415 C10.6101194,12.3742788 10.0353596,12.0717736 9.62048919,11.6396169 C9.20561875,11.2074602 8.99818664,10.6888799 8.99818664,10.0838605 C8.99818664,9.38376664 9.22938701,8.79172082 9.6917947,8.3077053 C10.1542024,7.82368979 10.7397659,7.52118463 11.4485029,7.40018075 L11.4485029,6 L12.9394361,6 L12.9394361,7.43907466 C13.5963144,7.58600794 14.1105731,7.86474484 14.4822279,8.27529371 C14.8538827,8.68584259 15.0915653,9.14608258 15.1952829,9.6560275 L13.3931984,10.1357191 C13.2549083,9.41833891 12.814115,9.05965422 12.0708055,9.05965422 C11.7250801,9.05965422 11.457147,9.14392352 11.266998,9.31246464 C11.0768491,9.48100575 10.981776,9.67763411 10.981776,9.9023556 C10.981776,10.2740104 11.2367447,10.520336 11.7466896,10.6413399 L12.874613,10.887668 C13.7043539,11.0691738 14.3158464,11.3868042 14.709109,11.8405688 C15.1023716,12.2943333 15.299,12.8323603 15.299,13.454666 C15.299,14.0769717 15.0872464,14.630124 14.6637328,15.1141395 C14.2402192,15.598155 13.6654594,15.9049817 12.9394361,16.0346287 L12.9394361,17.4477741 Z" id="$" fill="#3C3C3C" fill-rule="nonzero"></path>
        <circle id="Oval" stroke="#3C3C3C" stroke-width="2" stroke-linecap="round" stroke-linejoin="round" cx="12" cy="12" r="9"></circle>
    </g>
</svg>