<svg xmlns="http://www.w3.org/2000/svg" viewBox="0 0 20.64 14.15"><defs><style>.cls-1{fill:#3c3c3c;}</style></defs><g id="Layer_2" data-name="Layer 2"><g id="Layer_1-2" data-name="Layer 1"><g id="icon-right"><path class="cls-1" d="M10.32,14.15C6.9,14.15,3.48,11.91.15,7.51a.77.77,0,0,1,0-.91c6.65-8.8,13.69-8.8,20.34,0a.77.77,0,0,1,0,.91C17.17,11.91,13.74,14.15,10.32,14.15ZM1.7,7.06c2.91,3.71,5.81,5.59,8.62,5.59S16,10.77,19,7.06C16,3.35,13.14,1.47,10.32,1.47S4.61,3.35,1.7,7.06Zm8.62,4.59a4.6,4.6,0,1,1,4.6-4.59A4.6,4.6,0,0,1,10.32,11.65Zm0-7.69a3.1,3.1,0,1,0,3.1,3.1A3.1,3.1,0,0,0,10.32,4Z"/></g></g></g></svg>