<svg xmlns="http://www.w3.org/2000/svg" viewBox="0 0 36.69 28.54"><defs><style>.cls-1{fill:#fff;}</style></defs><g id="Layer_2" data-name="Layer 2"><g id="Layer_1-2" data-name="Layer 1"><g id="Staff"><g id="Staff---Solicitudes-nuevas---2"><g id="menu-lvl-2"><g id="misc_order-summary" data-name="misc/order-summary"><g id="btn_special_circle_big_filled" data-name="btn/special/circle/big/filled"><g id="icon_40_comida-italiana" data-name="icon/40/comida-italiana"><path class="cls-1" d="M2.49,21.55a1.51,1.51,0,0,1-.87-.23A1.24,1.24,0,0,1,1,20.26a1,1,0,0,1,.32-.73A5.22,5.22,0,0,0,3,15.6a8,8,0,0,1-3-6C0,4.31,6.28,0,14,0S28,4.31,28,9.62s-6.28,9.62-14,9.62a20.38,20.38,0,0,1-3.93-.38C5.42,21,3.48,21.55,2.49,21.55ZM14,2C7.38,2,2,5.42,2,9.62a6.23,6.23,0,0,0,2.62,4.72,1,1,0,0,1,.38.75,7.89,7.89,0,0,1-.86,4.06c1-.36,2.72-1,5.39-2.25a1.05,1.05,0,0,1,.63-.07,18.07,18.07,0,0,0,3.84.41c6.62,0,12-3.42,12-7.62S20.62,2,14,2Z"/><path class="cls-1" d="M35.33,28.54c-.86,0-2.55-.55-6.72-2.65a14.62,14.62,0,0,1-3.18.35,12.75,12.75,0,0,1-9.16-3.55,1,1,0,0,1,1.46-1.38,10.69,10.69,0,0,0,7.7,2.93,12.88,12.88,0,0,0,3.06-.37l.12,0h0a.65.65,0,0,1,.24,0h0l.21.05h0l.12.06c2.1,1.06,3.5,1.69,4.41,2.06a20.8,20.8,0,0,1-1.36-3.28.87.87,0,0,1-.05-.22,1,1,0,0,1,0-.43.89.89,0,0,1,.23-.37,1.22,1.22,0,0,1,.17-.15,4.69,4.69,0,0,0,2.06-3.85c0-2.11-1.48-4.11-4-5.34a1,1,0,1,1,.89-1.79c3.17,1.58,5.07,4.24,5.07,7.13a6.67,6.67,0,0,1-2.33,5,12.81,12.81,0,0,0,2.06,3.92,1,1,0,0,1,.23.64,1.2,1.2,0,0,1-.57,1A1.29,1.29,0,0,1,35.33,28.54Z"/></g></g></g></g></g></g></g></g></svg>