<?xml version="1.0" encoding="UTF-8"?>
<svg width="22px" height="17px" viewBox="0 0 22 17" version="1.1" xmlns="http://www.w3.org/2000/svg" xmlns:xlink="http://www.w3.org/1999/xlink">
    <!-- Generator: Sketch 63.1 (92452) - https://sketch.com -->
    <title>icon/40/default</title>
    <desc>Created with Sketch.</desc>
    <g id="Symbols" stroke="none" stroke-width="1" fill="none" fill-rule="evenodd" stroke-linecap="round" stroke-linejoin="round">
        <g id="misc/img/default" transform="translate(-214.000000, -84.000000)" stroke="#C2C2C2" stroke-width="2">
            <g id="icon/24/img" transform="translate(213.000000, 80.000000)">
                <path d="M4,5 L20,5 C21.1045695,5 22,5.8954305 22,7 L22,17.5945946 C22,18.6991641 21.1045695,19.5945946 20,19.5945946 L4,19.5945946 C2.8954305,19.5945946 2,18.6991641 2,17.5945946 L2,7 C2,5.8954305 2.8954305,5 4,5 Z M2.42256123,16.8918919 L6.82031213,12.9798353 L10.7584681,16.4830553 L17.5618973,10.4310072 L22,14.378959 M10.1081081,10.9459459 C11.003705,10.9459459 11.7297297,10.2199212 11.7297297,9.32432432 C11.7297297,8.42872743 11.003705,7.7027027 10.1081081,7.7027027 C9.21251122,7.7027027 8.48648649,8.42872743 8.48648649,9.32432432 C8.48648649,10.2199212 9.21251122,10.9459459 10.1081081,10.9459459 Z" id="Combined-Shape"></path>
            </g>
        </g>
    </g>
</svg>