<svg xmlns="http://www.w3.org/2000/svg" viewBox="0 0 15.15 20.5"><defs><style>.cls-1{fill:#a8a8a8;}</style></defs><g id="Layer_2" data-name="Layer 2"><g id="Layer_1-2" data-name="Layer 1"><path class="cls-1" d="M11.47,20.5H3.33a1.76,1.76,0,0,1-1.75-1.62L.65,5.8a.74.74,0,0,1,.2-.56A.76.76,0,0,1,1.4,5h12a.79.79,0,0,1,.55.24.73.73,0,0,1,.19.56l-.93,13.08A1.75,1.75,0,0,1,11.47,20.5ZM2.2,6.5l.88,12.27a.25.25,0,0,0,.25.23h8.14a.23.23,0,0,0,.24-.23L12.59,6.5ZM9.5,17.61a.76.76,0,0,1-.75-.75V9a.75.75,0,1,1,1.5,0v7.89A.75.75,0,0,1,9.5,17.61Zm-4,0a.76.76,0,0,1-.75-.75V9a.75.75,0,0,1,1.5,0v7.89A.75.75,0,0,1,5.5,17.61ZM14.4,4H.75a.75.75,0,0,1,0-1.5H6.47V.75A.75.75,0,0,1,8,.75V2.5H14.4a.75.75,0,0,1,0,1.5Z"/></g></g></svg>