<svg xmlns="http://www.w3.org/2000/svg" viewBox="0 0 19.77 14.02"><defs><style>.cls-1{fill:#f2a412;}</style></defs><g id="Layer_2" data-name="Layer 2"><g id="Layer_1-2" data-name="Layer 1"><path class="cls-1" d="M13.4,14H6.31a.74.74,0,0,1-.75-.75v-1A6.47,6.47,0,0,1,7.78,7.6a3.28,3.28,0,1,1,4.14,0,6.48,6.48,0,0,1,2.23,4.66v1A.75.75,0,0,1,13.4,14Zm-6.34-1.5h5.59v-.26c0-1.68-1.38-3.92-2.8-3.92s-2.79,2.24-2.79,3.92ZM9.85,3.27a1.79,1.79,0,1,0,1.78,1.79A1.79,1.79,0,0,0,9.85,3.27Zm9.17,9a.76.76,0,0,1-.75-.75v-1c0-1.67-1.38-3.91-2.8-3.91a.75.75,0,1,1,0-1.5,1.79,1.79,0,1,0,0-3.57,1.76,1.76,0,0,0-1.29.56.75.75,0,0,1-1.06,0,.75.75,0,0,1,0-1.06,3.28,3.28,0,1,1,4.45,4.8,6.48,6.48,0,0,1,2.23,4.65v1A.76.76,0,0,1,19,12.25Zm-18.27,0A.76.76,0,0,1,0,11.5v-1A6.48,6.48,0,0,1,2.23,5.83,3.28,3.28,0,1,1,6.68,1a.75.75,0,0,1,0,1.06.75.75,0,0,1-1.06,0A1.76,1.76,0,0,0,4.3,1.5a1.79,1.79,0,1,0,0,3.57.75.75,0,1,1,0,1.5c-1.42,0-2.8,2.24-2.8,3.91v1A.76.76,0,0,1,.75,12.25Z"/></g></g></svg>