<svg xmlns="http://www.w3.org/2000/svg" viewBox="0 0 21.5 20.46"><defs><style>.cls-1{fill:#efa414;}</style></defs><g id="Layer_2" data-name="Layer 2"><g id="Layer_1-2" data-name="Layer 1"><g id="general_resources_menu_active" data-name="general/resources/menu/active"><g id="icon"><path class="cls-1" d="M16,20.46a5.46,5.46,0,0,1-5.1-3.53h-9A1.92,1.92,0,0,1,0,15V4.42A1.92,1.92,0,0,1,1.93,2.49H3.1V.75a.75.75,0,1,1,1.5,0V2.49h7.91V.75a.75.75,0,0,1,1.5,0V2.49h.86a1.92,1.92,0,0,1,1.92,1.93V9.6A5.46,5.46,0,0,1,16,20.46Zm0-9.41A4,4,0,1,0,20,15,4,4,0,0,0,16,11.05ZM1.5,7.49V15a.43.43,0,0,0,.43.43H10.6c0-.14,0-.28,0-.43a5.46,5.46,0,0,1,4.7-5.4V7.49ZM1.5,6H15.29V4.42A.42.42,0,0,0,14.87,4H1.93a.43.43,0,0,0-.43.43ZM17.85,16.34H16.16a.75.75,0,0,1-.75-.75V13.77a.75.75,0,0,1,1.5,0v1.07h.94a.75.75,0,0,1,0,1.5ZM7.23,13.89H3.33a.75.75,0,1,1,0-1.5h3.9a.75.75,0,0,1,0,1.5ZM9,10.36H3.33a.75.75,0,0,1,0-1.5H9a.75.75,0,1,1,0,1.5Z"/></g></g></g></g></svg>