<svg xmlns="http://www.w3.org/2000/svg" viewBox="0 0 19.5 18.29"><defs><style>.cls-1{fill:#f2a412;}</style></defs><g id="Layer_2" data-name="Layer 2"><g id="Layer_1-2" data-name="Layer 1"><g id="icon_24_bell" data-name="icon/24/bell"><path class="cls-1" d="M17.25,18.29h-15A2.25,2.25,0,0,1,0,16V4.32A2.25,2.25,0,0,1,2.25,2.07H3.79V.75a.75.75,0,0,1,1.5,0V2.07h8.87V.75a.75.75,0,0,1,1.5,0V2.07h1.59A2.25,2.25,0,0,1,19.5,4.32V16A2.25,2.25,0,0,1,17.25,18.29ZM1.5,6.35V16a.75.75,0,0,0,.75.75h15A.75.75,0,0,0,18,16V6.35Zm14.16-1.5H18V4.32a.76.76,0,0,0-.75-.75H15.66Zm-10.37,0h8.87V3.57H5.29Zm-3.79,0H3.79V3.57H2.25a.76.76,0,0,0-.75.75ZM15.3,15.18h-.06a.75.75,0,0,1,0-1.5.78.78,0,0,1,.78.75A.72.72,0,0,1,15.3,15.18Zm-3.76,0h-.06a.75.75,0,0,1,0-1.5.78.78,0,0,1,.78.75A.72.72,0,0,1,11.54,15.18Zm-3.76,0H7.71a.75.75,0,0,1,0-1.5.78.78,0,0,1,.78.75A.72.72,0,0,1,7.78,15.18ZM4,15.18H4a.75.75,0,1,1,0-1.5.78.78,0,0,1,.78.75A.72.72,0,0,1,4,15.18Zm11.29-3h-.06a.75.75,0,0,1,0-1.5.78.78,0,0,1,.78.75A.72.72,0,0,1,15.3,12.18Zm-3.76,0h-.06a.75.75,0,0,1,0-1.5.78.78,0,0,1,.78.75A.72.72,0,0,1,11.54,12.18Zm-3.76,0H7.71a.75.75,0,0,1,0-1.5.78.78,0,0,1,.78.75A.72.72,0,0,1,7.78,12.18ZM4,12.18H4a.75.75,0,1,1,0-1.5.78.78,0,0,1,.78.75A.72.72,0,0,1,4,12.18Zm11.29-3h-.06a.75.75,0,0,1,0-1.5.78.78,0,0,1,.78.75A.72.72,0,0,1,15.3,9.18Zm-3.76,0h-.06a.75.75,0,0,1,0-1.5.78.78,0,0,1,.78.75A.72.72,0,0,1,11.54,9.18Zm-3.76,0H7.71a.75.75,0,0,1,0-1.5.78.78,0,0,1,.78.75A.72.72,0,0,1,7.78,9.18ZM4,9.18H4a.75.75,0,1,1,0-1.5.78.78,0,0,1,.78.75A.72.72,0,0,1,4,9.18Z"/></g></g></g></svg>