<?xml version="1.0" encoding="UTF-8"?>
<svg width="24px" height="24px" viewBox="0 0 24 24" version="1.1" xmlns="http://www.w3.org/2000/svg" xmlns:xlink="http://www.w3.org/1999/xlink">
    <!-- Generator: Sketch 63.1 (92452) - https://sketch.com -->
    <title>icon/24/appointments-standard-yellow</title>
    <desc>Created with Sketch.</desc>
    <g id="icon/24/appointments-standard-yellow" stroke="none" stroke-width="1" fill="none" fill-rule="evenodd" stroke-linecap="round" stroke-linejoin="round">
        <path d="M13.3903378,18.4302619 L4.17647059,18.4302619 C3.52672382,18.4302619 3,17.9035381 3,17.2537914 L3,6.66555607 C3,6.0158093 3.52672382,5.48908548 4.17647059,5.48908548 L17.1176471,5.48908548 C17.7673938,5.48908548 18.2941176,6.0158093 18.2941176,6.66555607 L18.2941176,12.0329159 M18.2941176,21.9596737 C20.8931047,21.9596737 23,19.8527784 23,17.2537914 C23,14.6548043 20.8931047,12.547909 18.2941176,12.547909 C15.6951306,12.547909 13.5882353,14.6548043 13.5882353,17.2537914 C13.5882353,19.8527784 15.6951306,21.9596737 18.2941176,21.9596737 Z M15.514074,5.08036535 L15.514074,3 M6.10230928,5.08036535 L6.10230928,3 M3.61695772,8.99092371 L17.7058824,8.99092371 M5.58501838,11.8605813 L11.2352941,11.8605813 M5.58501838,15.3899931 L9.48494945,15.3899931 M18.4118796,16.0227482 L18.4118796,17.8420267 L20.0975988,17.8420267" id="Combined-Shape" stroke="#F2A412" stroke-width="2"></path>
    </g>
</svg>