<?xml version="1.0" encoding="UTF-8"?>
<svg width="24px" height="24px" viewBox="0 0 24 24" version="1.1" xmlns="http://www.w3.org/2000/svg" xmlns:xlink="http://www.w3.org/1999/xlink">
    <!-- Generator: Sketch 63.1 (92452) - https://sketch.com -->
    <title>icon/24/dashboard-standard-yellow</title>
    <desc>Created with Sketch.</desc>
    <g id="icon/24/dashboard-standard-yellow" stroke="none" stroke-width="1" fill="none" fill-rule="evenodd" stroke-linecap="round" stroke-linejoin="round">
        <path d="M20,4 C20.5522847,4 21,4.44771525 21,5 L21,19.7142857 C21,20.2665705 20.5522847,20.7142857 20,20.7142857 L14.8,20.7142857 C14.2477153,20.7142857 13.8,20.2665705 13.8,19.7142857 L13.8,5 C13.8,4.44771525 14.2477153,4 14.8,4 L20,4 Z M9.2,14.0285714 C9.75228475,14.0285714 10.2,14.4762867 10.2,15.0285714 L10.2,19.7142857 C10.2,20.2665705 9.75228475,20.7142857 9.2,20.7142857 L4,20.7142857 C3.44771525,20.7142857 3,20.2665705 3,19.7142857 L3,15.0285714 C3,14.4762867 3.44771525,14.0285714 4,14.0285714 L9.2,14.0285714 Z M9.2,4 C9.75228475,4 10.2,4.44771525 10.2,5 L10.2,9.68571429 C10.2,10.237999 9.75228475,10.6857143 9.2,10.6857143 L4,10.6857143 C3.44771525,10.6857143 3,10.237999 3,9.68571429 L3,5 C3,4.44771525 3.44771525,4 4,4 L9.2,4 Z" id="Combined-Shape" stroke="#F2A412" stroke-width="2"></path>
    </g>
</svg>