<svg xmlns="http://www.w3.org/2000/svg" viewBox="0 0 25.92 26.09"><defs><style>.cls-1{fill:#fff;}</style></defs><g id="Layer_2" data-name="Layer 2"><g id="Layer_1-2" data-name="Layer 1"><g id="Staff"><g id="Staff---Solicitudes-nuevas---2"><g id="menu-lvl-2"><g id="misc_order-summary" data-name="misc/order-summary"><g id="btn_special_circle_big_filled" data-name="btn/special/circle/big/filled"><g id="icon_40_comida-italiana" data-name="icon/40/comida-italiana"><path class="cls-1" d="M5.05,26.09H5a1,1,0,0,1-.71-.31L.27,21.5a1,1,0,0,1,0-1.4L7.4,13,.29,5.92a1,1,0,0,1,0-1.4l4-4.21A1,1,0,0,1,5,0a1.06,1.06,0,0,1,.72.29L13,7.5,20.21.29A1,1,0,0,1,20.93,0a1,1,0,0,1,.71.31l4,4.21a1,1,0,0,1,0,1.4L18.52,13l7.11,7.07a1,1,0,0,1,0,1.4l-4,4.28a1,1,0,0,1-.72.31,1,1,0,0,1-.72-.29L13,18.59,5.75,25.8A1,1,0,0,1,5.05,26.09ZM13,16.18a1,1,0,0,1,.71.29l7.19,7.19,2.67-2.83L16.4,13.74a1,1,0,0,1-.29-.71,1,1,0,0,1,.29-.7L23.53,5.2,20.89,2.43,13.67,9.62a1,1,0,0,1-1.41,0L5,2.43,2.4,5.2l7.13,7.13a1,1,0,0,1,.29.7,1,1,0,0,1-.3.71L2.4,20.83l2.67,2.83,7.18-7.19A1,1,0,0,1,13,16.18Z"/></g></g></g></g></g></g></g></g></svg>