<?xml version="1.0" encoding="UTF-8"?>
<svg width="24px" height="24px" viewBox="0 0 24 24" version="1.1" xmlns="http://www.w3.org/2000/svg" xmlns:xlink="http://www.w3.org/1999/xlink">
    <!-- Generator: Sketch 63.1 (92452) - https://sketch.com -->
    <title>icon/24/community-standard</title>
    <desc>Created with Sketch.</desc>
    <g id="icon/24/community-standard" stroke="none" stroke-width="1" fill="none" fill-rule="evenodd" stroke-linecap="round" stroke-linejoin="round">
        <g id="Group" transform="translate(3.000000, 6.000000)" stroke="#3C3C3C" stroke-width="2">
            <path d="M9.1015756,6.83884636 C11.0600151,6.83884636 12.647644,9.54939698 12.647644,11.5078365 L12.647644,12.520999 L5.55550719,12.520999 L5.55550719,11.5078365 C5.55550719,9.54939698 7.1431361,6.83884636 9.1015756,6.83884636 Z M9.1015756,1.77303424 C10.500461,1.77303424 11.6344816,2.90705491 11.6344816,4.3059403 C11.6344816,5.70482569 10.500461,6.83884636 9.1015756,6.83884636 C7.70269024,6.83884636 6.56866959,5.70482569 6.56866959,4.3059403 C6.56866959,2.90705491 7.70269024,1.77303424 9.1015756,1.77303424 Z M5.38647342,0.792632048 C4.92476454,0.30452733 4.27097956,5.41788836e-14 3.54606842,5.41788836e-14 C2.14718305,5.41788836e-14 1.0131624,1.13402067 1.0131624,2.53290606 C1.0131624,3.93179145 2.14718305,5.06581212 3.54606842,5.06581212 M2.32258657e-13,10.7479647 L2.32258657e-13,9.73480229 C2.32258657e-13,7.77636274 1.58762891,5.06581212 3.54606842,5.06581212 M12.8840486,0.792632048 C13.3457575,0.30452733 13.9995424,5.41788836e-14 14.7244536,5.41788836e-14 C16.1233389,5.41788836e-14 17.2573596,1.13402067 17.2573596,2.53290606 C17.2573596,3.93179145 16.1233389,5.06581212 14.7244536,5.06581212 M18.270522,10.7479647 L18.270522,9.73480229 C18.270522,7.77636274 16.6828931,5.06581212 14.7244536,5.06581212" id="Combined-Shape"></path>
        </g>
    </g>
</svg>