<?xml version="1.0" encoding="UTF-8"?>
<svg width="24px" height="24px" viewBox="0 0 24 24" version="1.1" xmlns="http://www.w3.org/2000/svg" xmlns:xlink="http://www.w3.org/1999/xlink">
    <title>F865FFFE-C0F8-45D7-9737-89DB481CAD55@svg</title>
    <defs>
        <rect id="path-1" x="0" y="0" width="241" height="1024"></rect>
        <filter x="-0.2%" y="-0.0%" width="100.4%" height="100.1%" filterUnits="objectBoundingBox" id="filter-2">
            <feOffset dx="-1" dy="0" in="SourceAlpha" result="shadowOffsetInner1"></feOffset>
            <feComposite in="shadowOffsetInner1" in2="SourceAlpha" operator="arithmetic" k2="-1" k3="1" result="shadowInnerInner1"></feComposite>
            <feColorMatrix values="0 0 0 0 0.949445199   0 0 0 0 0.949445199   0 0 0 0 0.949445199  0 0 0 1 0" type="matrix" in="shadowInnerInner1"></feColorMatrix>
        </filter>
    </defs>
    <g id="Staff" stroke="none" stroke-width="1" fill="none" fill-rule="evenodd">
        <g id="Staff---Solicitudes-nuevas---2" transform="translate(-24.000000, -238.000000)">
            <rect fill="#FFFFFF" x="0" y="0" width="1366" height="1024"></rect>
            <g id="general/sidebar">
                <g id="Mask">
                    <use fill="#FFFFFF" fill-rule="evenodd" xlink:href="#path-1"></use>
                    <use fill="black" fill-opacity="1" filter="url(#filter-2)" xlink:href="#path-1"></use>
                </g>
                <g id="general/resources/menu/active" transform="translate(0.000000, 229.000000)" stroke="#3C3C3C" stroke-linecap="round" stroke-linejoin="round" stroke-width="1.5">
                    <g id="icon" transform="translate(24.000000, 9.000000)">
                        <path d="M13.3903378,18.4302619 L4.17647059,18.4302619 C3.52672382,18.4302619 3,17.9035381 3,17.2537914 L3,6.66555607 C3,6.0158093 3.52672382,5.48908548 4.17647059,5.48908548 L17.1176471,5.48908548 C17.7673938,5.48908548 18.2941176,6.0158093 18.2941176,6.66555607 L18.2941176,12.0329159 M18.2941176,21.9596737 C20.8931047,21.9596737 23,19.8527784 23,17.2537914 C23,14.6548043 20.8931047,12.547909 18.2941176,12.547909 C15.6951306,12.547909 13.5882353,14.6548043 13.5882353,17.2537914 C13.5882353,19.8527784 15.6951306,21.9596737 18.2941176,21.9596737 Z M15.514074,5.08036535 L15.514074,3 M6.10230928,5.08036535 L6.10230928,3 M3.61695772,8.99092371 L17.7058824,8.99092371 M5.58501838,11.8605813 L11.2352941,11.8605813 M5.58501838,15.3899931 L9.48494945,15.3899931 M18.4118796,16.0227482 L18.4118796,17.8420267 L20.0975988,17.8420267" id="Combined-Shape"></path>
                    </g>
                </g>
            </g>
        </g>
    </g>
</svg>