<?xml version="1.0" encoding="UTF-8"?>
<svg width="56px" height="56px" viewBox="0 0 56 56" version="1.1" xmlns="http://www.w3.org/2000/svg" xmlns:xlink="http://www.w3.org/1999/xlink">
    <title>C2D21F67-0923-4897-AE66-BA8584EC0D81@svg</title>
    <g id="Staff" stroke="none" stroke-width="1" fill="none" fill-rule="evenodd">
        <g id="Staff---Reservaciones---Empty" transform="translate(-774.000000, -358.000000)">
            <g id="Group" transform="translate(531.000000, 358.000000)">
                <g id="icon/64/menu" transform="translate(243.000000, 0.000000)">
                    <circle id="Oval" stroke="#A8A8A8" stroke-width="1.5" stroke-linecap="round" stroke-linejoin="round" cx="28.5" cy="27.5" r="25.5"></circle>
                    <path d="M29.7578125,19.6816406 L29.7578125,19.5820312 L29.7578125,19.5820312 C29.7578125,18.28125 30.1914062,17.6132812 31.7265625,16.6289062 C33.3320312,15.5976562 34.1992187,14.3671875 34.1992187,12.6328125 C34.1992187,10.2421875 32.21875,8.4375 29.3945312,8.4375 C26.9204425,8.4375 25.2938418,9.7322735 24.7137901,11.564105 C24.6214307,11.8557804 24.3728027,12.4602051 24.9394531,12.8554687 C25.9815674,12.9709473 26.244662,11.7893146 26.3034126,11.6569143 C26.8110078,10.5129994 27.9066355,9.83203125 29.3359375,9.83203125 C31.2226562,9.83203125 32.546875,11.0390625 32.546875,12.703125 C32.546875,13.9921875 31.9960937,14.8007812 30.5195312,15.7617187 C28.8671875,16.8164062 28.1875,17.8007812 28.1992187,19.359375 L28.1992187,19.6816406 C28.1992187,20.1120344 28.5481218,20.4609375 28.9785156,20.4609375 C29.4089094,20.4609375 29.7578125,20.1120344 29.7578125,19.6816406 Z M29.125,25.6875 C29.9101562,25.6875 30.484375,25.1015625 30.484375,24.3164062 C30.484375,23.5195312 29.9101562,22.9335938 29.125,22.9335938 C28.328125,22.9335938 27.7539062,23.5195312 27.7539062,24.3164062 C27.7539062,25.1015625 28.328125,25.6875 29.125,25.6875 Z" id="?" fill="#A8A8A8" fill-rule="nonzero"></path>
                    <g id="folder" transform="translate(12.000000, 27.000000)" stroke="#A8A8A8" stroke-linecap="round" stroke-linejoin="round" stroke-width="1.5">
                        <path d="M0,19.4336283 L0,2.54867257 C0,1.14107958 1.14107958,0 2.54867257,0 L10.7902921,0 C11.5388777,0 12.2496116,0.329100802 12.733865,0.899959001 L15.6436534,4.33013986 C16.1279067,4.90099807 16.8386406,5.23009886 17.5872262,5.23009886 L30.2654867,5.23009886 C31.6730797,5.23009886 32.8141593,6.37117844 32.8141593,7.77877143 C32.8141593,8.41890179 32.8141593,8.89899956 32.8141593,9.21906474" id="Path"></path>
                        <path d="M32.1496018,20.4430812 L35.6226722,10.6376645 C35.6647307,10.5189223 35.6866651,10.3939117 35.6866651,10.2679414 C35.688068,9.65212108 35.1899939,9.15175322 34.5741735,9.15033848 L5.10598889,9.08262952 C4.64696277,9.08158674 4.2341933,9.36194218 4.06596501,9.78903156 L0.176996698,19.6621455 C0.125733227,19.7922905 0.0994147487,19.9309191 0.0994147487,20.0707965" id="Path"></path>
                    </g>
                    <path d="M19.2688497,39.7916667 L27.8368632,39.7916667 M19.2688497,42.7916667 L23.0868632,42.7916667" id="Combined-Shape" stroke="#A8A8A8" stroke-width="1.5" stroke-linecap="round" stroke-linejoin="round"></path>
                </g>
            </g>
        </g>
    </g>
</svg>