<?xml version="1.0" encoding="UTF-8"?>
<svg width="24px" height="24px" viewBox="0 0 24 24" version="1.1" xmlns="http://www.w3.org/2000/svg" xmlns:xlink="http://www.w3.org/1999/xlink">
    <!-- Generator: Sketch 63.1 (92452) - https://sketch.com -->
    <title>icon/24/tutorials-standard</title>
    <desc>Created with Sketch.</desc>
    <g id="icon/24/tutorials-standard" stroke="none" stroke-width="1" fill="none" fill-rule="evenodd" stroke-linecap="round" stroke-linejoin="round">
        <path d="M19.3689638,9.69315273 C19.9212486,9.69315273 20.3689638,10.140868 20.3689638,10.6931527 L20.3689638,18.0794582 C20.3689638,18.6317429 19.9212486,19.0794582 19.3689638,19.0794582 L12.7869293,19.0791527 L12.7877171,14.2130173 C12.7877171,13.7001814 12.4016769,13.2775101 11.9043382,13.219745 L11.7877171,13.2130173 L8.73355262,13.2130173 C8.18126787,13.2130173 7.73355262,13.6607325 7.73355262,14.2130173 L7.73355262,14.2130173 L7.73292927,19.0791527 L4.94292927,19.0794582 C4.39064452,19.0794582 3.94292927,18.6317429 3.94292927,18.0794582 L3.94292927,10.6931527 C3.94292927,10.140868 4.39064452,9.69315273 4.94292927,9.69315273 L19.3689638,9.69315273 Z M3.74832937,5 L20.5635637,5 C21.0051719,5 21.3944948,5.28966815 21.52139,5.71265211 L22.3293358,8.40580484 C22.4880337,8.93479769 22.1878503,9.49228116 21.6588574,9.65097901 C21.5656374,9.67894502 21.4688341,9.69315273 21.3715095,9.69315273 L2.94038355,9.69315273 C2.3880988,9.69315273 1.94038355,9.24543748 1.94038355,8.69315273 C1.94038355,8.59582816 1.95459126,8.49902487 1.98255727,8.40580484 L2.79050309,5.71265211 C2.91739828,5.28966815 3.30672115,5 3.74832937,5 Z" id="Combined-Shape" stroke="#3C3C3C" stroke-width="2"></path>
    </g>
</svg>