<svg xmlns="http://www.w3.org/2000/svg" viewBox="0 0 20.5 16.75"><defs><style>.cls-1{fill:#3c3c3c;}</style></defs><g id="Layer_2" data-name="Layer 2"><g id="Layer_1-2" data-name="Layer 1"><path class="cls-1" d="M19,16.75H1.48A1.49,1.49,0,0,1,0,15.26v-.91A1.49,1.49,0,0,1,.94,13,9.08,9.08,0,0,1,5.43,2.64l-.16-.43a.77.77,0,0,1-.88-.46.75.75,0,0,1,.43-1L6.72.05a.75.75,0,0,1,1,.43.75.75,0,0,1-.43,1l-.59.23.14.37A9.09,9.09,0,0,1,18.16,7.39a.76.76,0,0,1-.06.66.78.78,0,0,1-.45.51L6.59,12.87H19a1.48,1.48,0,0,1,1.48,1.48v.91A1.49,1.49,0,0,1,19,16.75ZM1.91,14.37H1.48l0,.89H19v-.9l-16.35,0H1.91ZM9.68,3.08a7.56,7.56,0,0,0-7.21,9.79L16.52,7.38a7.51,7.51,0,0,0-3.75-3.64A7.6,7.6,0,0,0,9.68,3.08Z"/></g></g></svg>