<?xml version="1.0" encoding="UTF-8"?>
<svg width="24px" height="24px" viewBox="0 0 24 24" version="1.1" xmlns="http://www.w3.org/2000/svg" xmlns:xlink="http://www.w3.org/1999/xlink">
    <title>4746F859-A1AE-4FD5-AB98-0B396E6A13F1@svg</title>
    <g id="Menu" stroke="none" stroke-width="1" fill="none" fill-rule="evenodd">
        <g id="Menu-Sucursal---Empty" transform="translate(-1060.000000, -358.000000)">
            <rect fill="#F8F8F8" x="0" y="0" width="1440" height="960"></rect>
            <g id="a" transform="translate(580.000000, 355.000000)">
                <g id="misc/onboarding-bullet"></g>
                <g id="icon/24/question" transform="translate(480.000000, 3.000000)">
                    <circle id="Oval" stroke="#F2A412" stroke-width="1.5" stroke-linecap="round" stroke-linejoin="round" cx="12" cy="12" r="10"></circle>
                    <path d="M12.7546875,13.9306641 L12.7546875,13.5205078 C12.7546875,12.8300781 13.0076172,12.4677734 13.8894531,11.9482422 C14.7917969,11.4082031 15.325,10.6630859 15.325,9.61035156 C15.325,8.12695312 14.1082031,7.05371094 12.3035156,7.05371094 C10.3210937,7.05371094 9.26152344,8.22949219 9.2,9.80175781 L10.6150391,9.80175781 C10.6765625,8.92675781 11.2849609,8.37304688 12.2283203,8.37304688 C13.1648437,8.37304688 13.7732422,8.91992188 13.7732422,9.671875 C13.7732422,10.3623047 13.4792969,10.7519531 12.6521484,11.2509766 C11.715625,11.8115234 11.2986328,12.4267578 11.3328125,13.4111328 L11.3396484,13.9306641 L12.7546875,13.9306641 Z M12.1326172,17.1572266 C12.7615234,17.1572266 13.1853516,16.7402344 13.1853516,16.1181641 C13.1853516,15.4824219 12.7615234,15.0654297 12.1326172,15.0654297 C11.5037109,15.0654297 11.0730469,15.4824219 11.0730469,16.1181641 C11.0730469,16.7402344 11.5037109,17.1572266 12.1326172,17.1572266 Z" id="?" fill="#F2A412" fill-rule="nonzero"></path>
                </g>
            </g>
        </g>
    </g>
</svg>