<?xml version="1.0" encoding="UTF-8"?>
<svg width="100px" height="39px" viewBox="0 0 100 39" version="1.1" xmlns="http://www.w3.org/2000/svg" xmlns:xlink="http://www.w3.org/1999/xlink">
    <!-- Generator: sketchtool 63 (101010) - https://sketch.com -->
    <title>5444159F-39A0-49A7-BAD6-8270BA80E799</title>
    <desc>Created with sketchtool.</desc>
    <g id="Onboarding" stroke="none" stroke-width="1" fill="none" fill-rule="evenodd">
        <g id="Onboarding---1" transform="translate(-670.000000, -78.000000)" fill="#F2A412">
            <g id="logo-stepper" transform="translate(535.000000, 78.000000)">
                <g id="general/logo" transform="translate(135.000000, 0.000000)">
                    <path d="M46.8666429,12.2445818 C49.5825952,12.2445818 51.5623571,14.4363818 51.5623571,17.1673273 C51.5623571,19.8807818 49.5825952,22.0725818 46.8490238,22.0725818 C45.4473571,22.0725818 44.3785476,21.4637091 43.6249762,20.5418909 L43.6249762,27.0637545 C44.3959286,26.1246818 45.4823571,25.4808273 46.8666429,25.4808273 C49.5825952,25.4808273 51.5623571,27.6728636 51.5623571,30.4035727 C51.5623571,33.1172636 49.5825952,35.3088273 46.8490238,35.3088273 C45.4473571,35.3088273 44.3785476,34.7001909 43.6249762,33.7783727 L43.6249762,38.9443364 L41.6975952,38.9443364 L41.6975952,12.4707818 L43.6249762,12.4707818 L43.6249762,13.8275091 C44.3959286,12.8882 45.4823571,12.2445818 46.8666429,12.2445818 Z M17.9100238,0.0749070106 C17.9662143,0.0749070106 18.0219286,0.0768181818 18.077881,0.0772909091 L18.077881,0.0772909091 L18.0514524,17.6618 L35.7645476,17.6880364 C35.7650238,17.7438182 35.7664524,17.7991273 35.7664524,17.8546727 C35.7514524,27.6595091 27.732881,35.5958909 17.8562143,35.5812566 C7.97954762,35.5665818 -0.0149761905,27.6063273 2.7358221e-06,17.8014909 C0.0147857143,7.99665455 8.03335714,0.0602727273 17.9100238,0.0749070106 Z M94.8558333,25.4635727 C97.800119,25.4635727 99.850119,27.6901182 99.850119,30.3860818 C99.850119,33.1172636 97.800119,35.3260818 94.8558333,35.3260818 C91.9122619,35.3260818 89.8625,33.1172636 89.8625,30.3860818 C89.8625,27.6901182 91.9122619,25.4635727 94.8558333,25.4635727 Z M85.4824286,22.3846055 L85.4824286,25.7069327 L88.7417143,25.7069327 L88.7417143,27.3420964 L85.4824286,27.3420964 L85.4824286,31.7604418 C85.4824286,32.8909691 85.8855238,33.5520782 86.9369524,33.5520782 C87.5498095,33.5520782 88.0929048,33.3258782 88.6012381,33.0301873 L89.2671905,34.5261327 C88.5664762,35.0480236 87.5852857,35.3092055 86.6562381,35.3092055 C84.571,35.3092055 83.5550476,34.0042418 83.5550476,31.72546 L83.5550476,27.3420964 L81.9252857,27.3420964 L81.9252857,25.7069327 L83.5724286,25.7069327 L83.5724286,22.3846055 L85.4824286,22.3846055 Z M55.2940476,25.7071455 L55.2940476,31.2210364 C55.2940476,32.6302364 56.0995238,33.5345636 57.5014286,33.5345636 C58.9207143,33.5345636 59.7095238,32.6302364 59.7095238,31.2210364 L59.7095238,25.7071455 L61.6545238,25.7071455 L61.6545238,31.2385273 C61.6545238,33.7955091 60.077619,35.3089455 57.5014286,35.3089455 C54.9785714,35.3089455 53.3664286,33.7607636 53.3664286,31.2385273 L53.3664286,25.7071455 L55.2940476,25.7071455 Z M77.7735952,25.3937745 C78.9471667,25.3937745 80.1385952,25.8459382 80.8745476,26.83772 L79.753119,28.0202473 C79.1574048,27.29012 78.3693095,26.9944291 77.6859762,26.9944291 C76.8624048,26.9944291 76.4243095,27.4811018 76.4243095,28.0202473 C76.4243095,28.3856655 76.6166905,28.7860655 77.2124048,29.0467745 C77.8435952,29.3252109 78.7719286,29.6554109 79.508119,30.0385564 C80.5240714,30.5602109 81.1197857,31.2905745 81.1197857,32.4038473 C81.1197857,34.0042655 79.7183571,35.3087564 77.597881,35.3087564 C76.2140714,35.3087564 74.7945476,34.6998836 73.9709762,33.3433927 L75.2152619,32.23012 C75.8285952,33.18692 76.7743095,33.6563382 77.6333571,33.6563382 C78.5790714,33.6563382 79.192881,33.1171927 79.192881,32.4910655 C79.192881,31.9866655 78.8769286,31.6557564 78.3866905,31.4123018 C77.8257381,31.1341018 76.6345476,30.71692 76.0562143,30.4035018 C75.0221667,29.86412 74.5493095,29.0120291 74.5493095,28.0899745 C74.5493095,26.55952 75.793119,25.3937745 77.7735952,25.3937745 Z M68.2946667,25.4810636 C70.940381,25.4810636 72.9201429,27.2379545 72.9201429,30.2123545 C72.9201429,30.5950273 72.885381,30.8734636 72.8501429,31.1344091 L65.4734762,31.1344091 C65.7363333,32.4736455 66.6651429,33.5869182 68.6101429,33.5869182 C69.6960952,33.5869182 70.9751429,33.1692636 71.8165714,32.5776455 L72.6222857,33.9868455 C71.7639524,34.6477182 70.2396667,35.2915727 68.5399048,35.2915727 C64.9825238,35.2915727 63.475619,32.8388273 63.475619,30.3688273 C63.475619,27.5854091 65.4032381,25.4810636 68.2946667,25.4810636 Z M46.5864048,27.2379545 C44.7464048,27.2379545 43.5723571,28.6814273 43.5723571,30.3860818 C43.5723571,32.1254818 44.7464048,33.5521727 46.5864048,33.5521727 C48.4261667,33.5521727 49.6175952,32.1254818 49.6175952,30.3860818 C49.6175952,28.6641727 48.4261667,27.2379545 46.5864048,27.2379545 Z M94.8558333,27.2379545 C93.1386905,27.2379545 91.8075,28.6814273 91.8075,30.3860818 C91.8075,32.1254818 93.1386905,33.5344455 94.8558333,33.5344455 C96.5732143,33.5344455 97.905119,32.1254818 97.905119,30.3860818 C97.905119,28.6814273 96.5732143,27.2379545 94.8558333,27.2379545 Z M68.2946667,27.1332455 C66.8227619,27.1332455 65.7539524,28.1250273 65.4734762,29.5687364 L70.9751429,29.5687364 C70.8175238,28.0727909 69.7139524,27.1332455 68.2946667,27.1332455 Z M81.5922619,12.2270909 C84.5365476,12.2270909 86.5863095,14.4536364 86.5863095,17.1498364 C86.5863095,19.8807818 84.5365476,22.0898364 81.5922619,22.0898364 C78.6486905,22.0898364 76.5989286,19.8807818 76.5989286,17.1498364 C76.5989286,14.4536364 78.6486905,12.2270909 81.5922619,12.2270909 Z M62.0571905,12.2445818 C63.441,12.2445818 64.5102857,12.8707091 65.2812381,13.7752727 L65.2812381,12.4707818 L67.138619,12.4707818 L67.138619,21.8463818 L65.2812381,21.8463818 L65.2812381,20.5591455 C64.5102857,21.4637091 63.441,22.0725818 62.0571905,22.0725818 C59.323381,22.0725818 57.343619,19.8982727 57.343619,17.0976 C57.343619,14.2971636 59.3412381,12.2445818 62.0571905,12.2445818 Z M72.2188571,9.14824182 L72.2188571,12.4705691 L75.4781429,12.4705691 L75.4781429,14.1057327 L72.2188571,14.1057327 L72.2188571,18.5240782 C72.2188571,19.6546055 72.6219524,20.3157145 73.673381,20.3157145 C74.2862381,20.3157145 74.8293333,20.0895145 75.3376667,19.7938236 L76.003619,21.2897691 C75.3029048,21.81166 74.3217143,22.0728418 73.3926667,22.0728418 C71.3074286,22.0728418 70.2914762,20.7678782 70.2914762,18.4890964 L70.2914762,14.1057327 L68.6617143,14.1057327 L68.6617143,12.4705691 L70.3088571,12.4705691 L70.3088571,9.14824182 L72.2188571,9.14824182 Z M55.4166667,8.66107273 L55.4166667,21.8463818 L53.4892857,21.8463818 L53.4892857,8.66107273 L55.4166667,8.66107273 Z M46.5864048,14.0014727 C44.7464048,14.0014727 43.5723571,15.4451818 43.5723571,17.1498364 C43.5723571,18.8892364 44.7464048,20.3156909 46.5864048,20.3156909 C48.4261667,20.3156909 49.6175952,18.8892364 49.6175952,17.1498364 C49.6175952,15.4276909 48.4261667,14.0014727 46.5864048,14.0014727 Z M62.3195714,14.0014727 C60.4626667,14.0014727 59.288619,15.4451818 59.288619,17.1673273 C59.288619,18.8892364 60.4800476,20.3156909 62.3195714,20.3156909 C64.1421905,20.3156909 65.3688571,18.8719818 65.3688571,17.1498364 C65.3688571,15.4451818 64.1421905,14.0014727 62.3195714,14.0014727 Z M81.5922619,14.0014727 C79.875119,14.0014727 78.5439286,15.4451818 78.5439286,17.1498364 C78.5439286,18.8892364 79.875119,20.2982 81.5922619,20.2982 C83.3096429,20.2982 84.6415476,18.8892364 84.6415476,17.1498364 C84.6415476,15.4451818 83.3096429,14.0014727 81.5922619,14.0014727 Z M18.0779524,0.0751872727 L35.7931905,0.10166 L35.7665238,17.68806 C35.689381,8.01558727 27.8210476,0.180841818 18.0779524,0.0773145455 L18.0779524,0.0773145455 L18.0779524,0.0751872727 Z M45.8503095,7.09090909e-05 C47.2345952,7.09090909e-05 48.3034048,0.626198182 49.0743571,1.53076182 L49.0743571,0.226270909 L50.9317381,0.226270909 L50.9317381,9.60187091 L49.0743571,9.60187091 L49.0743571,8.31463455 C48.3034048,9.21919818 47.2345952,9.82807091 45.8503095,9.82807091 C43.1167381,9.82807091 41.1367381,7.65376182 41.1367381,4.85308909 C41.1367381,2.05265273 43.1343571,7.09090909e-05 45.8503095,7.09090909e-05 Z M46.1131667,1.75696182 C44.2557857,1.75696182 43.0817381,3.20067091 43.0817381,4.92281636 C43.0817381,6.64472545 44.2734048,8.07118 46.1131667,8.07118 C47.9355476,8.07118 49.1619762,6.62747091 49.1619762,4.90532545 C49.1619762,3.20067091 47.9355476,1.75696182 46.1131667,1.75696182 Z" id="Combined-Shape"></path>
                </g>
            </g>
        </g>
    </g>
</svg>